<?xml version="1.0" encoding="UTF-8"?>
<svg id="Layer_2" data-name="Layer 2" xmlns="http://www.w3.org/2000/svg" xmlns:xlink="http://www.w3.org/1999/xlink" viewBox="0 0 139.7 93.9">
  <defs>
    <style>
      .cls-1 {
        fill: url(#linear-gradient-15);
      }

      .cls-2 {
        fill: url(#linear-gradient-13);
      }

      .cls-3 {
        fill: #abdee5;
      }

      .cls-4 {
        fill: #0d2c4c;
      }

      .cls-5 {
        fill: url(#linear-gradient-2);
      }

      .cls-6 {
        fill: url(#linear-gradient-10);
      }

      .cls-7 {
        fill: url(#linear-gradient-12);
      }

      .cls-8 {
        fill: #fff;
      }

      .cls-9 {
        fill: url(#linear-gradient-4);
      }

      .cls-10 {
        fill: url(#linear-gradient-3);
      }

      .cls-11 {
        fill: url(#linear-gradient-5);
      }

      .cls-12 {
        fill: url(#linear-gradient-8);
      }

      .cls-13 {
        fill: url(#linear-gradient-14);
      }

      .cls-14 {
        fill: url(#linear-gradient-7);
      }

      .cls-15 {
        fill: url(#linear-gradient-9);
      }

      .cls-16 {
        fill: url(#linear-gradient-11);
      }

      .cls-17 {
        fill: url(#linear-gradient-6);
      }

      .cls-18 {
        fill: #555554;
      }

      .cls-19 {
        fill: url(#linear-gradient);
      }
    </style>
    <linearGradient id="linear-gradient" x1="-1574.36" y1="-1271.07" x2="-1572.3" y2="-1268.54" gradientTransform="translate(1652.98 1311.3)" gradientUnits="userSpaceOnUse">
      <stop offset="0" stop-color="#f3911f"/>
      <stop offset=".74" stop-color="#e43634"/>
    </linearGradient>
    <linearGradient id="linear-gradient-2" x1="-1576.29" y1="-1268.97" x2="-1573.36" y2="-1265.74" gradientTransform="translate(1652.98 1311.3)" gradientUnits="userSpaceOnUse">
      <stop offset=".17" stop-color="#f3911f"/>
      <stop offset=".32" stop-color="#f28b20"/>
      <stop offset=".52" stop-color="#ef7a24"/>
      <stop offset=".74" stop-color="#ea5e2a"/>
      <stop offset=".98" stop-color="#e43833"/>
      <stop offset="1" stop-color="#e43634"/>
    </linearGradient>
    <linearGradient id="linear-gradient-3" x1="-1578.42" y1="-1273.78" x2="-1570.79" y2="-1258.32" gradientTransform="translate(1652.98 1311.3)" gradientUnits="userSpaceOnUse">
      <stop offset="0" stop-color="#fff" stop-opacity="0"/>
      <stop offset="1" stop-color="#fff" stop-opacity=".4"/>
    </linearGradient>
    <linearGradient id="linear-gradient-4" x1="-1578.23" y1="-1270.64" x2="-1573.83" y2="-1265.26" gradientTransform="translate(1652.98 1311.3)" gradientUnits="userSpaceOnUse">
      <stop offset="0" stop-color="#f3911f"/>
      <stop offset=".76" stop-color="#e43634"/>
    </linearGradient>
    <linearGradient id="linear-gradient-5" x1="-1579.17" y1="-1273.29" x2="-1575.54" y2="-1265.09" gradientTransform="translate(1652.98 1311.3)" gradientUnits="userSpaceOnUse">
      <stop offset=".3" stop-color="#fff" stop-opacity="0"/>
      <stop offset=".42" stop-color="#fff" stop-opacity=".02"/>
      <stop offset=".57" stop-color="#fff" stop-opacity=".09"/>
      <stop offset=".74" stop-color="#fff" stop-opacity=".19"/>
      <stop offset=".93" stop-color="#fff" stop-opacity=".33"/>
      <stop offset="1" stop-color="#fff" stop-opacity=".4"/>
    </linearGradient>
    <linearGradient id="linear-gradient-6" x1="-1588.63" y1="-1279.92" x2="-1553.29" y2="-1249.59" gradientTransform="translate(1652.98 1311.3)" gradientUnits="userSpaceOnUse">
      <stop offset="0" stop-color="#f3911f"/>
      <stop offset="1" stop-color="#e43634"/>
    </linearGradient>
    <linearGradient id="linear-gradient-7" x1="-1573.06" y1="-1263.17" x2="-1561.21" y2="-1265.19" xlink:href="#linear-gradient-6"/>
    <linearGradient id="linear-gradient-8" x1="-1572.8" y1="-1261.67" x2="-1560.96" y2="-1263.69" xlink:href="#linear-gradient-6"/>
    <linearGradient id="linear-gradient-9" x1="-1573.34" y1="-1264.84" x2="-1561.5" y2="-1266.86" xlink:href="#linear-gradient-6"/>
    <linearGradient id="linear-gradient-10" x1="-1572.95" y1="-1262.56" x2="-1561.11" y2="-1264.58" xlink:href="#linear-gradient-6"/>
    <linearGradient id="linear-gradient-11" x1="-1575.3" y1="-1280.13" x2="-1579.72" y2="-1239.74" xlink:href="#linear-gradient-3"/>
    <linearGradient id="linear-gradient-12" x1="-1570.68" y1="-1275.92" x2="-1566.3" y2="-1272.26" gradientTransform="translate(1652.98 1311.3)" gradientUnits="userSpaceOnUse">
      <stop offset=".2" stop-color="#e43634"/>
      <stop offset=".23" stop-color="#e53e32"/>
      <stop offset=".36" stop-color="#ea5c2b"/>
      <stop offset=".5" stop-color="#ee7325"/>
      <stop offset=".64" stop-color="#f08421"/>
      <stop offset=".8" stop-color="#f28d1f"/>
      <stop offset="1" stop-color="#f3911f"/>
    </linearGradient>
    <linearGradient id="linear-gradient-13" x1="1298.06" y1="-1196.03" x2="1303.22" y2="-1190.26" gradientTransform="translate(1276.65 1341.04) rotate(-90)" gradientUnits="userSpaceOnUse">
      <stop offset="0" stop-color="#e43634"/>
      <stop offset="1" stop-color="#f3911f"/>
    </linearGradient>
    <linearGradient id="linear-gradient-14" x1="-1571.12" y1="-1277.89" x2="-1566.65" y2="-1267.82" xlink:href="#linear-gradient-3"/>
    <linearGradient id="linear-gradient-15" x1="-1570.99" y1="-1278.17" x2="-1564.88" y2="-1264.4" xlink:href="#linear-gradient-3"/>
  </defs>
  <g id="Back_Side" data-name="Back Side">
    <g>
      <g>
        <g>
          <path class="cls-4" d="M28.01,93.4c-.18,0-.36,0-.54-.02-1.27-.09-2.25-.8-2.85-2.05,0,0-.27-.59-.32-.71-.38.13-.77.19-1.15.25-.16.03-.32.05-.48.08-.44.09-.87.12-1.29.14-.25.02-.5.03-.74.06-.06,0-.11,0-.16,0-.46,0-.83-.24-1.04-.68-.18-.38-.36-.76-.54-1.14-.28.07-.57.11-.86.11-.4,0-.81-.06-1.26-.2-.46-.13-.9-.28-1.35-.45-.54-.21-.8-.6-.78-1.17v-.28c0-.23,0-.46.03-.69.04-.31.02-.64-.02-.98-.71.19-1.58.43-2.48.45h0c-.81,0-1.4-.34-1.78-.6-.25-.17-.35-.43-.38-.52-.16-.41-.31-.87-.33-1.38-.02-.46-.17-.92-.32-1.4-.04-.11-.07-.21-.1-.32-.04,0-.08,0-.11.02-.19.04-.37.09-.55.14-.36.09-.72.19-1.09.26-.32.06-.64.07-.97.09,0,0-.35.02-.36.02-.32,0-.51-.12-.63-.2-.37-.26-.76-.49-1.16-.67-.1-.05-.19-.11-.3-.19-.32-.26-.41-.63-.26-.99.08-.2.14-.34.2-.49.2-.45.33-.9.4-1.36.09-.59.36-1.14.79-1.63l.16-.18c.11-.12.22-.24.32-.37-.21-.23-.31-.47-.31-.76-.27-.05-.51-.18-.74-.3l-.22-.11c-.29-.14-.47-.42-.48-.75-.01-.19-.03-.35.03-.52.05-.14.01-.29-.07-.52-.1-.29-.21-.64-.22-1.04-.01-.44.11-.81.38-1.13.32-.39.69-.75,1.08-1.08.73-.61,1.46-1.22,2.19-1.84-.16-.1-.31-.18-.46-.24-.96-.36-1.53-1.11-1.99-1.78-.06-.08-.11-.17-.16-.25-.07-.12-.13-.23-.21-.3-.08-.08-.12-.17-.15-.23-.32-.61-.23-1.09.25-1.51l.08-.07c.16-.14.31-.27.45-.43.07-.08.08-.13.09-.14,0,0,0,0,0,0,0,0-.04-.04-.11-.08-.09-.06-.18-.1-.27-.15l-.21-.11c-.21-.12-.34-.19-.45-.28-.54-.43-.7-.96-.48-1.62.07-.21.16-.4.26-.56.24-.4.53-.87.92-1.29.09-.1.18-.21.27-.32.25-.3.52-.61.86-.87.02-.02.05-.11.08-.18l.29-.74c.16-.4.31-.8.48-1.2.34-.77.79-1.45,1.18-2.01.35-.51.78-.92,1.19-1.31.18-.18.37-.35.54-.53.49-.51,1.03-.98,1.54-1.42.32-.27.63-.55.94-.83.06-.05.11-.1.17-.15l-6.73-9.77v13.31H.5v-21.8h5.28l8.98,12.76v-12.76h5.17v12.45c.15-.11.31-.22.46-.33l.19-.13c.11-.56.26-1.09.47-1.58.42-1.03,1.02-1.93,1.77-2.68.75-.75,1.66-1.35,2.71-1.78s2.21-.65,3.45-.65c.68,0,1.36.07,2.01.2l1.22-.71c.39-.22.78-.45,1.17-.68.35-.21.7-.43,1.04-.64.42-.26.83-.52,1.26-.77.34-.21.7-.4,1.05-.59l.61-.34,1.44-.82c1.15-.66,2.34-1.31,3.54-1.94.56-.29,1.1-.61,1.64-.93.38-.22.76-.44,1.14-.66.34-.19.69-.38,1.04-.56.56-.3,1.12-.59,1.66-.92.3-.19.62-.35.93-.51.33-.17.65-.34.97-.54.34-.21.7-.4,1.05-.58l.44-.23.87-.47c.65-.35,1.31-.71,1.97-1.04.25-.12.49-.26.74-.39.43-.23.87-.47,1.33-.67.32-.13.62-.3.92-.47.19-.11.38-.21.58-.31.4-.21,2.25-1.14,2.25-1.14.23-.12.45-.24.68-.36.25-.13.5-.26.74-.39.36-.18,2.09-1.05,2.09-1.05.65-.33,1.31-.66,1.96-1l.94-.49c.92-.48,1.83-.95,2.76-1.39.38-.18.76-.37,1.14-.57.3-.15.6-.31.91-.46.38-.19.77-.37,1.16-.55.58-.27,1.16-.55,1.73-.84.6-.3,1.21-.58,1.82-.85.44-.2.88-.39,1.32-.6,1.16-.55,2.32-1.1,3.49-1.64.6-.27,1.21-.53,1.81-.79l.98-.42c.22-.1.45-.2.67-.3.32-.14.64-.29.96-.43.58-.24,1.17-.48,1.75-.71l1.86-.75c1.22-.49,2.43-.98,3.66-1.46,1.06-.41,2.18-.81,3.31-1.2.88-.3,1.76-.58,2.64-.86.74-.24,1.48-.48,2.22-.72.48-.16.96-.34,1.44-.52l.65-.24c1.54-.57,2.91-1.02,4.17-1.38.72-.21,1.29-.34,1.84-.43l.21-.04c.32-.06.65-.12.99-.13h.02c.13,0,.22,0,.31.02.23.04.42.2.5.43.08.24.04.49-.12.67-.06.08-.17.21-.36.26,0,.02,0,.05,0,.1.02.2.01.4-.02.59.35-.18.74-.33,1.13-.48.27-.1.55-.21.81-.32.57-.25,1.16-.43,1.73-.61.23-.07.46-.15.69-.22.11-.03.22-.05.36-.05.34,0,.61.18.72.46.13.33,0,.68-.3.86-.12.07-.24.13-.37.19l-.43.21c-.62.3-1.2.57-1.76.91-.33.2-.67.38-1.02.54-.15.07-.29.14-.43.21.61-.19,1.21-.42,1.79-.63.29-.11.58-.2.87-.29.36-.11.72-.23,1.07-.37.43-.17.86-.33,1.29-.5.33-.12.65-.24.97-.37.18-.07.41-.15.68-.15.06,0,.12,0,.18.01.21.03.39.16.48.36.1.21.08.45-.04.64-.12.19-.29.33-.53.43-.32.14-.56.25-.79.38-.13.07-.26.16-.38.24-.06.04-.12.08-.18.12.02.05.03.1.04.16.03.22-.05.43-.22.57-.05.04-.11.08-.17.12-.03.02-.07.05-.1.07-.41.35-.85.65-1.29.93.21.04.39.19.46.4.11.3,0,.63-.28.8-.23.14-.46.28-.7.42.11.06.2.15.27.27.13.25.11.54-.06.76-.08.11-.18.18-.26.24-.17.13-.35.25-.53.38l.48-.16c.42-.14.83-.28,1.25-.44,2.04-.8,3.78-1.41,5.46-1.91.2-.06.4-.15.6-.23l.1-.04c.22-.09.45-.14.7-.14.07,0,.15,0,.23.01.29.04.45.26.49.33.15.23.14.52-.03.77-.02.03-.05.06-.08.09,0,.01.02.02.02.03.06.11.09.22.09.34.32-.15.64-.29.97-.43.3-.13.61-.23.92-.33.16-.05.31-.05.43-.06h0c.28,0,.54.14.63.4.03.13.06.33-.03.53l1.92-.8c.16-.07.33-.13.5-.17l.06-.02h.08c.21,0,.43.12.55.29.1.15.13.36.08.56-.06.22-.2.39-.43.52l-.23.14c-.2.12-.4.24-.61.34-1.05.48-2.09,1.02-3.09,1.54l-.12.06c.54-.24,1.07-.52,1.63-.82l.23-.12c.17-.08.34-.13.49-.13.32,0,.57.19.63.48,0,.02,0,.04.01.06.03,0,.05-.02.08-.03.41-.17.8-.33,1.16-.55.09-.06.18-.09.24-.11.14-.06.27-.11.43-.11.17,0,.34.06.47.19.13.12.21.3.21.5,0,.23-.11.45-.3.61-.16.13-.32.24-.5.34-.28.17-.87.5-.87.5.38.03.59.3.6.57,0,.15-.02.27-.08.37.35-.15.69-.3,1.03-.45l2.78-1.22c.23-.1.45-.15.66-.15.08,0,.17,0,.25.02.22.04.4.21.46.43l.09.29-.22.31c-.19.19-.46.44-.81.58-.42.18-.81.43-1.22.7-.18.12-.35.23-.53.34-.11.07-.2.15-.3.24h-.01c.38.08.52.32.55.51.02.15,0,.32-.08.47-.12.22-.31.34-.43.42-.25.17-.49.34-.72.5l.05.23c.11.57-.28.87-.47,1.02l-.09.07c-.25.23-.51.41-.77.59l-.67.47c-.23.16-.46.33-.69.5-.08.06-.15.11-.23.17.06-.01.12-.02.18-.02.5,0,.89.38.94.92.02.26-.11.46-.18.56-.1.13-.21.19-.29.24l-.11.06c.12-.05.97-.44.97-.44.45-.21.89-.41,1.32-.65.28-.15.56-.29.84-.43l.5-.25,4.06-2.14c.11-.06.21-.12.33-.16l.08-.03h.15c.26-.01.49.13.62.38.07.13.1.27.09.41.3-.14.61-.26.92-.37l.24-.09h.14c.17,0,.33.05.44.15.21.18.31.52.06.87-.17.23-.38.37-.55.48l-.1.07c-.24.17-.57.37-.93.53-.35.15-.68.35-1.03.57-.19.12-.38.23-.57.34l-.5.29c-.26.15-.53.31-.8.45-.86.47-1.77.98-2.61,1.57-.08.06-.17.12-.26.18.1.03.2.09.28.16,0,0,.02,0,.03,0,.03,0,.08-.02.17-.06.37-.18.74-.37,1.1-.57l3.16-1.76c.18-.1.38-.18.57-.26.14-.06.22-.07.3-.07.22,0,.42.11.55.31.16.22.14.52-.05.75-.09.12-.19.25-.35.33-.19.1-.36.23-.54.35-.27.2-.56.4-.91.55-.07.03-.14.08-.21.12-.08.05-.15.1-.23.14l-.35.2c-.29.16-.58.33-.88.47-.25.12-.49.27-.72.42-.16.1-.32.2-.48.29-.19.11-.37.22-.56.33-.36.22-.73.44-1.11.63-.25.12-.48.28-.71.44-.12.08-.48.32-.48.32-.14.09-.27.19-.42.25-.32.15-.62.34-.94.54-.17.1-.33.21-.5.31-.29.17-.57.35-.85.53.39-.22.8-.44,1.25-.61.09-.04.14-.06.2-.08l.07-.02h.13c.24,0,.45.11.57.32.17.29.1.66-.17.86l-.12.09c-.18.14-.37.28-.57.38-.28.14-.54.32-.81.51-.18.13-.36.25-.55.37-.27.17-.55.33-.82.48-.3.17-.6.35-.9.53-.19.12-.34.21-.49.32-.01.37-.27.56-.39.64-.29.23-.56.4-.82.55l.16.02-.35.64c-.12.23-.27.41-.42.54.16-.07.33-.15.49-.22.32-.15.65-.28.98-.41.46-.18.89-.35,1.3-.58.17-.09.35-.16.54-.22l.17-.06c.09-.03.19-.05.29-.05.23,0,.41.09.52.16.18.11.31.3.33.51,0,.08,0,.15-.02.22.36.08.51.3.54.51.03.19,0,.4-.12.54-.17.22-.36.45-.67.58-.24.11-.46.26-.7.43v1.08c.18.08.31.24.37.44.08.26,0,.52-.19.68l-.18.15v1.24h4.33v4.29h-4.33v5.69c0,.6.07,1.07.2,1.39.11.26.27.42.5.52.2.08.46.13.76.13.12,0,.24,0,.37-.02.52-.05,1.15-.17,1.89-.35l.62-.16v4.37l-.37.1c-1.32.37-2.53.56-3.61.57h-.1c-1.06,0-1.98-.17-2.74-.5-.82-.36-1.47-.92-1.92-1.69-.45-.75-.67-1.68-.67-2.75v-7.31h-.19c-.15.13-.3.25-.47.36-.21.14-.4.3-.59.46-.2.17-.41.34-.62.49-.18.13-.36.27-.53.42,0,.12,0,.22,0,.33v9.89h-4.41l-.19-1.38c-.07.07-.15.14-.22.21-.36.33-.77.6-1.22.82-.44.21-.92.38-1.44.5-.51.11-1.06.17-1.64.17-.86,0-1.64-.13-2.33-.4-.41-.16-.8-.37-1.17-.63-1.75,1.23-3.74,2.57-5.92,3.98l-1.21.77-1.42.9v1.19l-.72-.74c-1.81,1.13-3.75,2.32-5.91,3.63v4.55h-1.86l-1.81-2.35c-.58.34-1.14.68-1.71,1.01v1.35h-2.03v-.16l-1.69.98-.38-.36.25.43-.38.22c-1.56.9-3.03,1.74-4.37,2.5l-.05.33-.39.03c-.14.01-.27.05-.39.11-1.46.82-2.74,1.55-3.77,2.12l-.35.2c-.77.44-1.5.84-2.23,1.23l-.33-.39.23.44c-.36.19-.72.38-1.08.56-.37.18-.72.4-1.04.61-.33.21-.67.39-1.02.57-.16.08-.32.16-.47.25l-2.2,1.2c-.42.23-.84.46-1.26.7-.41.24-.83.46-1.26.68-.47.24-.95.49-1.4.77-.22.14-.46.25-.69.37l-.85.43c-.41.21-.82.42-1.21.64l-.28.16c-1.25.72-2.55,1.46-3.75,2.29-.94.65-2.06,1.41-3.27,2.11-.37.22-.74.44-1.11.66-.55.33-1.11.67-1.67.98-.8.45-1.73.96-2.68,1.39-.47.22-.94.45-1.41.68-.42.21-.85.42-1.28.62-.92.43-2.01.9-3.19,1.21-.48.12-1.04.26-1.64.27h-.11c-.34,0-.67-.03-.98-.1-.14-.03-.29-.04-.44-.04-.36,0-.73.08-1.25.27-.86.32-1.72.62-2.58.93l-.24.08c-.56.2-1.14.31-1.72.33-.3,0-.59.06-.94.12-.59.11-1.17.17-1.71.17ZM111.28,49.45c.19.05.4.08.64.08.33,0,.69-.07,1.05-.22.36-.14.69-.35.97-.61.28-.26.52-.59.72-.98.15-.29.24-.62.27-.99-.26.16-.52.32-.78.47-.3.17-.59.35-.88.53-.48.47-1.14,1.05-1.97,1.72Z"/>
          <path class="cls-8" d="M109.8,1c.07,0,.13,0,.2.02.11.02.16.2.09.28-.04.04-.08.1-.12.11-.34.09-.38.34-.34.63.02.17,0,.34-.04.51-.05.19-.03.38,0,.57.02.09.09.14.17.14.01,0,.03,0,.04,0,.04-.01.07-.02.11-.04.74-.41,1.55-.65,2.32-.99.77-.33,1.59-.55,2.39-.82.06-.02.13-.03.2-.03,0,0,.02,0,.03,0,.1,0,.19.05.23.15.04.1,0,.19-.1.25-.11.07-.23.13-.36.19-.74.36-1.49.7-2.2,1.12-.31.19-.63.36-.96.51-.63.29-1.23.62-1.79,1.02-.06.04-.12.09-.17.15-.06.06-.05.15-.03.22.02.08.08.13.17.13.04,0,.07,0,.11,0,.15,0,.31-.02.46-.06,1.03-.24,2.01-.61,3-.97.65-.24,1.32-.41,1.95-.67.74-.3,1.5-.57,2.25-.86.17-.07.33-.12.5-.12.04,0,.07,0,.11,0,.09.01.14.14.08.22-.08.12-.18.19-.31.24-.28.12-.56.25-.83.4-.37.2-.69.48-1.09.64-.05.02-.1.07-.08.14.02.06.07.08.13.09s.12.01.17.04c.09.04.12.18.05.24-.09.07-.19.13-.28.2-.76.65-1.64,1.13-2.5,1.63-.55.32-1.05.69-1.63.96-.03.02-.06.04-.09.07-.04.04-.07.11-.03.15.03.04.09.06.14.06,0,0,0,0,0,0,.07,0,.15-.02.22-.05.69-.28,1.39-.53,2.05-.89.2-.11.41-.14.62-.14.03,0,.07,0,.1,0,.06,0,.11.02.13.08.03.09,0,.16-.07.2-.26.16-.52.32-.79.47-.5.28-1.01.55-1.51.82-.72.39-1.45.77-2.18,1.16-.17.09-.31.21-.47.33-.05.03-.1.08-.07.14.02.05.06.07.11.07.03,0,.06,0,.09-.02.62-.25,1.24-.5,1.86-.76.63-.27,1.27-.55,1.9-.82.09-.04.18-.07.27-.1.02,0,.04,0,.05,0,.06,0,.11.03.14.09.04.08.02.15-.02.22-.04.06-.11.11-.17.15-.68.5-1.39.95-2.13,1.35-.22.12-.44.22-.66.34-.27.14-.55.27-.74.53-.04.06-.1.13-.04.21.04.06.11.06.18.06,0,0,.02,0,.02,0h0c.2,0,.38-.09.54-.17.95-.47,1.95-.8,2.94-1.14.52-.18,1.05-.35,1.57-.56,1.78-.7,3.58-1.35,5.42-1.9.26-.08.5-.19.75-.29.16-.07.33-.1.5-.1.06,0,.11,0,.17,0,.05,0,.1.06.13.1.05.07.02.15-.03.21-.06.08-.15.12-.24.14-.25.05-.46.19-.66.33-.11.08-.15.22-.09.3.05.06.11.08.17.08.03,0,.06,0,.09-.02.13-.04.24-.11.37-.16.07-.03.14-.05.22-.06,0,0,0,0,0,0,.03,0,.07.03.09.05.02.03.02.08,0,.11-.03.1-.12.15-.21.19-.49.26-.99.51-1.48.76-.72.36-1.46.68-2.15,1.1-.15.09-.3.17-.39.33-.02.03-.02.08,0,.11.02.05.06.07.1.07.01,0,.02,0,.03,0,.11-.03.22-.07.32-.12.87-.39,1.74-.79,2.62-1.18.94-.43,1.88-.86,2.83-1.27.28-.12.57-.22.86-.31.11-.03.23-.03.34-.03h0s.08.03.09.05c.01.05.02.12,0,.16-.06.13-.18.19-.29.27-.39.25-.82.42-1.23.63-.22.11-.44.23-.66.35-.06.04-.13.1-.15.16-.02.06,0,.15.01.22.02.06.08.09.14.09.02,0,.03,0,.05,0,.64-.14,1.26-.3,1.84-.62.1-.06.2-.11.31-.16.85-.36,1.7-.71,2.54-1.06.14-.06.29-.11.43-.15,0,0,.01,0,.02,0,.04,0,.1.03.13.07.03.04.03.11.02.16-.03.1-.1.16-.19.21-.27.15-.52.33-.8.45-1.29.59-2.54,1.25-3.8,1.9-.87.45-1.74.89-2.58,1.38-.28.17-.55.35-.82.54-.12.08-.15.2-.09.29.05.09.13.15.22.15.02,0,.04,0,.06,0,.24-.07.47-.15.71-.23.85-.3,1.66-.7,2.47-1.08.09-.04.17-.09.26-.12.89-.31,1.71-.76,2.54-1.2.03-.02.07-.04.1-.06.1-.05.19-.07.26-.07.08,0,.13.03.15.08.04.18-.12.22-.22.3-.19.13-.38.26-.57.38-.14.09-.29.18-.44.27-.03.02-.05.07-.04.1,0,.02.05.05.08.05,0,0,0,0,0,0,.49-.16.99-.3,1.46-.51.58-.25,1.18-.45,1.72-.79.06-.04.14-.06.21-.08.06-.03.13-.06.19-.06.04,0,.09.01.13.05.08.07.05.25-.08.35-.13.11-.28.2-.42.29-.86.5-1.74.98-2.58,1.51-.99.62-2.01,1.2-3.01,1.79-.05.03-.1.06-.14.1-.02.02-.04.07-.04.1,0,.02.05.06.07.06.02,0,.04,0,.07,0,.15,0,.29-.06.43-.12.7-.31,1.4-.62,2.1-.93.73-.33,1.46-.68,2.19-1.01.02,0,.03-.02.05-.02.07-.03.13-.04.18-.04.09,0,.16.04.16.1,0,.14-.1.19-.2.25-.3.17-.6.33-.9.52-.22.14-.43.31-.64.48-.06.05-.08.13-.06.21.03.09.1.12.17.12.02,0,.04,0,.06,0,.28-.07.56-.13.83-.23.9-.33,1.77-.73,2.65-1.11.84-.37,1.68-.74,2.52-1.11.15-.07.3-.11.46-.11.05,0,.1,0,.16.01.07.01.12.14.07.19-.19.19-.4.37-.64.47-.66.27-1.22.71-1.83,1.08-.19.12-.36.29-.53.43-.1.08-.12.19-.13.31,0,.17-.11.27-.25.36-.2.12-.41.21-.57.38-.04.04-.08.12-.07.14.02.04.06.05.09.05.04,0,.08-.01.11-.03.26-.12.52-.25.77-.38.12-.06.25-.11.39-.11.02,0,.04,0,.05,0,.06,0,.12.02.13.08,0,.05,0,.11-.03.16-.08.14-.22.2-.35.29-.66.46-1.32.92-1.97,1.39-.05.03-.09.08-.12.12-.02.03-.04.08-.02.1.01.02.05.04.08.04,0,0,.01,0,.02,0,.17-.08.34-.17.51-.25.19-.08.36-.22.57-.22.04,0,.08,0,.12.02.07.33-.23.47-.4.63-.31.28-.67.51-1.01.75-.36.26-.72.51-1.07.77-1.04.78-2.11,1.53-3.22,2.2-.59.36-1.18.71-1.77,1.07-.14.09-.27.2-.41.3.03.08.08.1.12.1s.09-.02.12-.03c.35-.15.71-.29,1.05-.46.55-.27,1.1-.54,1.64-.84.8-.45,1.64-.83,2.47-1.23.09-.04.17-.06.25-.06.24,0,.42.18.45.46,0,.07-.04.15-.08.2-.05.06-.12.09-.18.13-.74.45-1.48.89-2.21,1.34-.76.47-1.52.96-2.28,1.44-.16.1-.32.21-.35.42.05.03.11.04.16.04.07,0,.13-.02.19-.05,1.31-.54,2.65-1,3.87-1.74.57-.35,1.2-.6,1.8-.88.52-.24,1.04-.48,1.55-.76.43-.24.89-.45,1.33-.68.48-.25.95-.5,1.42-.75.85-.45,1.69-.89,2.54-1.34.12-.06.23-.14.36-.18.02,0,.04-.01.06-.01.07,0,.14.05.18.13.05.09.04.18-.03.26-.04.04-.09.07-.14.1-1.23.78-2.48,1.53-3.77,2.21-.59.32-1.13.71-1.74.99-.15.07-.28.2-.4.32-.03.03-.04.12-.02.15.02.03.08.06.13.06,0,0,0,0,.01,0,.09-.01.19-.04.27-.08.97-.49,1.96-.96,2.91-1.5.6-.34,1.23-.63,1.83-.96.41-.22.8-.45,1.2-.68.48-.29,1-.47,1.52-.67.01,0,.03,0,.05,0,.04,0,.09.01.11.03.07.06.04.13,0,.2-.14.19-.35.3-.53.43-.27.18-.55.35-.84.48-.59.25-1.1.62-1.65.94-.43.24-.86.5-1.29.74-.91.49-1.81,1-2.65,1.61-.62.44-1.27.86-1.91,1.27-.81.51-1.65.98-2.46,1.48-.75.46-1.49.94-2.23,1.42-.39.25-.78.48-1.17.73-.05.03-.08.08-.04.14.01.02.05.03.08.03.01,0,.02,0,.03,0,.34-.13.69-.24,1-.43.26-.16.53-.31.8-.46.99-.54,1.99-1.07,2.98-1.61.49-.27.94-.59,1.42-.86.35-.2.71-.37,1.07-.56.08-.04.16-.07.25-.07.06,0,.13.02.18.07.11.1.23.14.34.14.14,0,.27-.05.41-.12.38-.18.75-.38,1.12-.58,1.06-.58,2.11-1.18,3.16-1.76.18-.1.38-.18.58-.25.02,0,.04-.01.06-.01.06,0,.1.03.14.09.04.06.02.11-.02.16-.06.07-.11.17-.2.21-.49.26-.88.67-1.4.88-.17.07-.32.2-.49.29-.4.22-.8.46-1.21.66-.43.21-.82.49-1.23.73-.55.31-1.07.66-1.64.94-.39.19-.75.47-1.12.7-.16.1-.31.22-.49.3-.52.24-.99.58-1.48.87-.41.24-.81.5-1.21.76-.32.2-.65.41-.97.62-.08.05-.17.12-.2.2-.13.38-.45.56-.75.75-.53.34-1.07.66-1.61,1-.06.04-.11.1-.16.16,0,.01.02.07.05.09.04.02.08.03.12.03.05,0,.11-.02.16-.04.42-.19.83-.39,1.25-.59.22-.11.42-.27.67-.31.05,0,.11-.04.15-.07.58-.45,1.26-.71,1.89-1.06.47-.25.93-.53,1.43-.72.05-.02.1-.05.16-.06.02,0,.04,0,.06,0,.06,0,.1.02.14.08.04.08.02.16-.04.21-.2.15-.39.32-.61.43-.5.25-.93.61-1.4.9-.57.35-1.16.66-1.72,1.02-.18.11-.36.22-.53.34-.11.08-.2.19-.19.34.01.19-.12.24-.24.34-.44.35-.94.59-1.4.9-.06.04-.12.09-.18.14-.07.06-.03.22.06.24.13.03.26.04.43.06-.16.29-.37.47-.61.63-.43.27-.72.69-1.02,1.08-.05.06-.05.15,0,.22.03.04.08.06.12.06.03,0,.06,0,.08-.02.32-.13.64-.26.95-.41.4-.19.8-.36,1.2-.54.76-.35,1.57-.59,2.31-1,.2-.11.42-.17.64-.25.04-.01.08-.02.12-.02.09,0,.18.04.27.09.09.05.11.17.04.24-.13.11-.27.22-.4.32-.47.36-.95.71-1.42,1.08-.07.06-.13.13-.19.21,0,.01.02.08.04.09.05.01.09.02.14.02.09,0,.17-.03.25-.07.19-.1.37-.21.54-.33.32-.21.64-.43.96-.64.13-.09.28-.15.44-.15.02,0,.03,0,.05,0,.08,0,.16.03.17.12,0,.05,0,.12-.03.16-.13.17-.27.33-.47.42-.48.21-.86.56-1.3.83-.02.01-.04.03-.06.04h.37v1.56s0,0,.01,0c.04-.02.09-.03.15-.03.03,0,.05,0,.07,0,.14.02.22.22.12.31-.12.1-.23.2-.35.3v1.97h4.33v3.29h-4.33v6.2c0,.67.08,1.2.24,1.58.16.38.42.64.77.79.26.11.58.16.95.16.13,0,.27,0,.41-.02.55-.05,1.2-.17,1.96-.36v3.35c-1.29.36-2.44.54-3.48.55-.03,0-.07,0-.1,0-.99,0-1.84-.15-2.54-.46-.73-.32-1.29-.81-1.69-1.49-.4-.67-.6-1.51-.6-2.5v-7.81h-.87c-.18.16-.37.31-.56.45-.43.29-.79.66-1.22.95-.26.19-.51.4-.75.61.01.18.02.36.02.55v9.39h-3.48l-.28-2.02c-.27.36-.57.69-.9.98-.33.3-.7.54-1.11.74-.41.2-.85.35-1.33.46-.47.11-.99.16-1.53.16-.8,0-1.52-.12-2.15-.36-.52-.2-.95-.47-1.34-.79-1.87,1.32-3.96,2.73-6.2,4.18-.37.24-.75.48-1.13.73,0,0,0,0,0,0-.55.35-1.11.7-1.67,1.06-.04.08-.06.16-.06.26-.05-.05-.08-.1-.12-.15-2.13,1.34-4.33,2.68-6.51,3.99v4.33h-1.12l-1.93-2.51c-.79.47-1.57.93-2.34,1.38v1.13h-1.03v-.53c-.51.3-1.01.59-1.51.88-.31.18-.62.36-.93.54-.02.01-.05.03-.07.04-.15.08-.29.17-.43.25-1.65.95-3.19,1.83-4.58,2.62,0,.06-.01.12-.02.18-.2.02-.39.07-.57.16-1.48.84-2.76,1.56-3.79,2.13-.12.07-.23.13-.35.2-.74.42-1.48.83-2.22,1.23-.03.02-.05.03-.07.04-.02,0-.02.01-.02.01h0c-.35.19-.71.37-1.07.55-.37.19-.73.41-1.09.63-.47.3-.97.53-1.46.8-.6.33-1.2.66-1.81.99-.55.3-1.11.6-1.66.92-.88.51-1.81.92-2.67,1.45-.31.19-.64.34-.97.51-.59.31-1.2.6-1.78.93-1.38.79-2.76,1.57-4.07,2.47-1.05.73-2.12,1.44-3.23,2.09-.93.54-1.84,1.11-2.77,1.64-.87.48-1.74.96-2.65,1.38-.9.42-1.79.87-2.69,1.29-1.01.47-2.03.9-3.11,1.18-.5.13-1,.25-1.52.26-.03,0-.06,0-.1,0-.3,0-.59-.03-.87-.09-.18-.04-.36-.06-.54-.06-.49,0-.95.13-1.42.31-.93.35-1.87.68-2.81,1.01-.51.18-1.03.28-1.57.3-.34.01-.68.07-1.02.13-.53.1-1.07.16-1.61.16-.17,0-.34,0-.51-.02-1.15-.08-1.94-.73-2.43-1.76-.12-.26-.23-.52-.36-.78-.08-.17-.17-.25-.3-.25-.05,0-.1.01-.16.03-.55.2-1.12.24-1.68.35-.66.13-1.33.12-2,.2-.04,0-.07,0-.11,0-.28,0-.47-.14-.59-.4-.19-.4-.38-.8-.56-1.19-.09-.2-.14-.27-.25-.27-.06,0-.13.02-.23.05-.27.08-.54.11-.8.11-.38,0-.75-.07-1.12-.18-.44-.13-.88-.27-1.31-.44-.34-.13-.47-.34-.46-.69,0-.3-.02-.61.03-.91.07-.47,0-.96-.06-1.43-.01-.12-.1-.18-.21-.18-.01,0-.02,0-.04,0-.11.01-.22.04-.33.07-.78.21-1.55.42-2.36.43-.01,0-.03,0-.04,0-.55,0-1.01-.21-1.45-.51-.1-.07-.15-.17-.19-.28-.15-.4-.28-.79-.3-1.22-.03-.7-.3-1.34-.49-2-.04-.14-.16-.2-.3-.2,0,0,0,0,0,0-.12,0-.23,0-.34.04-.54.13-1.07.29-1.61.39-.41.07-.84.07-1.26.1,0,0-.02,0-.03,0-.11,0-.2-.05-.29-.11-.39-.28-.8-.52-1.24-.72-.07-.03-.13-.08-.19-.12-.13-.11-.18-.24-.11-.41.06-.16.13-.32.2-.48.21-.48.36-.97.44-1.48.08-.53.32-.98.67-1.38.19-.22.39-.43.57-.65.16-.21.16-.35-.06-.54-.15-.13-.21-.26-.21-.45,0-.25-.12-.36-.36-.44-.31-.11-.59-.27-.88-.42-.13-.06-.2-.18-.21-.32,0-.12-.03-.24,0-.34.1-.3.03-.56-.07-.84-.1-.29-.19-.58-.2-.89-.01-.31.07-.56.26-.8.31-.37.65-.7,1.02-1.01.79-.66,1.58-1.33,2.37-1.99.06-.05.11-.1.16-.16.09-.1.08-.21-.05-.28-.3-.17-.59-.38-.91-.49-.8-.3-1.3-.92-1.76-1.59-.14-.2-.24-.44-.42-.62-.04-.04-.06-.1-.09-.15-.19-.36-.16-.6.15-.87.2-.18.41-.35.58-.56.31-.37.27-.69-.13-.96-.16-.11-.34-.18-.5-.28-.13-.08-.27-.15-.39-.24-.37-.3-.47-.61-.31-1.06.06-.16.13-.32.21-.47.25-.43.53-.85.86-1.22.35-.38.65-.81,1.06-1.13.16-.12.21-.32.28-.5.24-.6.46-1.22.72-1.81.3-.68.7-1.31,1.13-1.93.48-.69,1.12-1.19,1.69-1.79.77-.8,1.65-1.48,2.46-2.24.16-.15.34-.28.51-.42l-7.9-11.48v14.41H1v-20.8h4.52l9.74,13.84v-13.84h4.17v12.93c.41-.3.83-.6,1.25-.89.12-.08.24-.16.36-.24.1-.58.25-1.15.48-1.69.4-.97.95-1.81,1.66-2.51.71-.71,1.55-1.26,2.54-1.68.99-.41,2.08-.62,3.26-.62.75,0,1.44.08,2.09.23.24-.14.48-.28.72-.42.61-.36,1.23-.7,1.84-1.07.77-.46,1.52-.95,2.3-1.41.54-.32,1.1-.62,1.65-.93.48-.27.96-.55,1.44-.82,1.16-.66,2.34-1.31,3.52-1.93.95-.5,1.86-1.07,2.8-1.59.9-.5,1.84-.95,2.72-1.49.62-.38,1.29-.67,1.9-1.06.47-.3.98-.53,1.47-.79.94-.5,1.88-1.03,2.83-1.51.68-.34,1.33-.74,2.04-1.04.53-.22,1.02-.54,1.53-.8.75-.39,1.5-.76,2.25-1.14.48-.24.95-.51,1.42-.75.6-.3,1.2-.6,1.8-.9.75-.38,1.5-.76,2.25-1.14,1.22-.63,2.44-1.28,3.69-1.87.69-.33,1.37-.69,2.05-1.03.96-.47,1.94-.91,2.89-1.39,1.03-.52,2.09-.95,3.13-1.44,1.16-.55,2.32-1.1,3.48-1.63.92-.42,1.86-.81,2.79-1.21.54-.24,1.08-.49,1.63-.72.74-.31,1.49-.6,2.24-.9,1.67-.67,3.34-1.35,5.02-2,1.09-.42,2.19-.82,3.29-1.19,1.61-.54,3.24-1.05,4.85-1.59.71-.24,1.4-.51,2.1-.77,1.36-.5,2.74-.97,4.14-1.37.58-.17,1.18-.32,1.78-.42.38-.06.75-.15,1.13-.16.01,0,.02,0,.03,0M128.55,16.05s.01,0,.02,0h0s0,0,0,0h0s-.01,0-.02,0M128.55,16.08s0,0,0,0c0,0,0,0,0,0,0,0,0,0,0,0,0,0,0,0,0,0,0,0,0,0,0,0,0,0-.02-.01-.02-.02,0,0,.01,0,.02-.01,0,0-.01,0-.02.01,0,0,.02.01.02.02M121.01,37.4s.02,0,.03,0c.21-.09.42-.18.62-.29.42-.23.83-.48,1.24-.71l.14-.64c-.48.34-.97.65-1.45.99-.22.15-.43.31-.65.47-.04.04-.05.11,0,.15.01.02.05.03.08.03M111.92,50.03c.4,0,.81-.08,1.23-.25.42-.17.8-.41,1.12-.71.33-.31.6-.68.82-1.12.22-.44.33-.95.33-1.52v-.28h-.51c-.63.41-1.3.76-1.93,1.17-.7.67-1.59,1.42-2.61,2.23.16.12.34.23.55.32.28.12.62.17,1,.17M90.44,64.65v-2.06c-.36.22-.72.43-1.08.65l1.08,1.41M109.8,0h-.06c-.38.01-.75.08-1.06.13l-.21.04c-.56.09-1.16.23-1.89.44-1.28.36-2.65.82-4.21,1.39-.22.08-.44.16-.66.24-.47.18-.94.35-1.42.51-.74.25-1.47.48-2.21.72-.88.29-1.77.57-2.65.87-1.15.39-2.27.79-3.33,1.2-1.22.47-2.44.96-3.65,1.45l-1.38.55-.51.2c-.58.23-1.16.46-1.74.7-.33.14-.66.29-.98.43-.22.1-.44.2-.66.29-.33.14-.66.28-.99.42-.61.26-1.22.52-1.82.8-1.12.51-2.21,1.02-3.5,1.64-.43.21-.87.4-1.31.6-.6.27-1.23.55-1.84.86-.56.29-1.14.56-1.71.83-.39.18-.78.37-1.17.56-.31.15-.61.3-.91.46-.37.19-.75.38-1.13.56-.95.45-1.88.93-2.79,1.4l-.93.48c-.64.33-1.28.65-1.92.98l-.32.16-.7.35c-.37.18-.74.37-1.1.55-.25.13-.5.26-.75.39-.23.12-.45.24-.68.36-.34.17-.68.35-1.03.52-.41.21-.82.41-1.23.62-.2.1-.39.21-.59.32-.3.17-.59.33-.87.45-.49.21-.94.45-1.38.69-.24.13-.48.26-.72.38-.68.34-1.35.7-1.99,1.05-.29.16-.57.31-.86.47-.14.08-.29.15-.44.23-.36.18-.73.37-1.09.6-.29.18-.6.34-.93.52-.31.16-.64.33-.96.53-.52.32-1.06.6-1.63.9-.35.19-.7.37-1.05.56-.39.22-.77.44-1.15.66-.53.31-1.08.63-1.63.92-1.21.64-2.4,1.29-3.55,1.95l-.6.35c-.28.16-.55.32-.83.48-.2.11-.39.22-.59.33-.36.2-.73.4-1.08.61-.42.25-.83.51-1.25.77-.35.22-.7.44-1.05.65-.39.23-.78.46-1.17.68l-.65.38-.31.18-.08.05c-.63-.12-1.27-.18-1.92-.18-1.31,0-2.53.23-3.64.69-1.11.46-2.07,1.1-2.87,1.89-.8.8-1.43,1.75-1.88,2.84-.06.14-.11.28-.16.42v-11.16h-6.17v11.68l-7.92-11.26-.3-.42H0v22.8h6.2v-12.2l5.57,8.09c-.26.23-.52.46-.78.69-.53.45-1.07.92-1.57,1.45-.17.18-.35.35-.53.52-.43.41-.88.84-1.26,1.39-.41.58-.87,1.28-1.23,2.1-.18.4-.33.81-.49,1.22-.08.21-.16.42-.24.62l-.05.12s0,.02-.01.03c-.34.28-.6.59-.84.87-.09.1-.17.2-.26.3-.41.46-.73.95-.98,1.38-.12.2-.22.42-.3.66-.29.86-.07,1.61.64,2.17.16.12.31.21.44.28l.07.04s.04.02.05.03c-.03.03-.06.05-.09.08l-.07.06c-.65.57-.79,1.31-.38,2.09.05.09.12.23.24.36.04.04.1.14.14.22.06.1.11.19.18.28.46.67,1.03,1.41,1.95,1.84-.53.45-1.06.89-1.6,1.34-.42.35-.8.73-1.14,1.14-.35.42-.52.91-.49,1.47.02.46.14.85.25,1.18.05.15.06.21.06.23-.08.25-.07.49-.05.63h0s0,.05,0,.05c.02.51.31.95.76,1.17l.21.11c.16.08.33.17.52.25.03.12.07.23.13.33-.02.02-.04.04-.05.06l-.16.18c-.49.56-.8,1.19-.91,1.88-.06.41-.19.82-.37,1.23-.06.14-.12.29-.18.44l-.03.07c-.23.55-.07,1.17.41,1.56.14.11.27.19.41.26.37.17.73.38,1.08.63.1.07.42.3.87.3h.1c.11-.01.22-.02.33-.02.33-.02.67-.03,1.03-.1.39-.07.77-.17,1.13-.26.07-.02.13-.03.2-.05.13.4.25.79.26,1.15.02.58.19,1.08.37,1.54.04.11.18.48.56.74.43.3,1.11.69,2.02.69h.06c.72-.01,1.41-.15,2.02-.31,0,.1,0,.19-.02.27-.04.29-.04.54-.04.77,0,.09,0,.17,0,.26-.02.78.37,1.36,1.1,1.65.43.17.88.32,1.39.47.5.15.95.22,1.4.22.19,0,.38-.01.57-.04.12.26.25.53.37.79.3.61.84.96,1.49.96.07,0,.15,0,.22-.01.24-.03.48-.04.72-.06.43-.03.88-.06,1.35-.15.15-.03.31-.05.47-.08.25-.04.52-.08.79-.15.05.11.1.22.15.32.68,1.42,1.81,2.22,3.26,2.33.19.01.38.02.58.02.57,0,1.18-.06,1.8-.18.33-.06.61-.11.87-.12.63-.02,1.26-.14,1.87-.36l.26-.09c.86-.3,1.71-.61,2.56-.92.46-.17.78-.24,1.07-.24.11,0,.22.01.33.03.34.07.71.11,1.08.11h.12c.65-.02,1.25-.16,1.76-.29,1.22-.32,2.34-.8,3.28-1.24.43-.2.86-.41,1.28-.62.47-.23.93-.46,1.4-.67.97-.44,1.91-.96,2.71-1.41.57-.32,1.13-.65,1.68-.99.37-.22.73-.44,1.1-.66,1.22-.71,2.35-1.47,3.3-2.13,1.19-.82,2.49-1.56,3.74-2.28l.26-.15c.39-.22.78-.42,1.2-.64.18-.09.36-.19.55-.28.1-.05.2-.1.3-.15.24-.12.48-.24.73-.39.44-.27.89-.5,1.38-.75.42-.22.85-.44,1.28-.69.41-.24.82-.46,1.24-.69l.39-.21.71-.39,1.1-.6c.15-.08.31-.16.46-.24.35-.18.71-.37,1.06-.59.31-.2.65-.41.99-.58.36-.18.71-.36,1.07-.55h0s.03-.02.03-.02l.05-.03.05-.03c.74-.39,1.49-.82,2.22-1.23l.36-.21c1.01-.56,2.29-1.28,3.76-2.11.06-.03.11-.04.19-.05l.78-.07.08-.48c1.28-.73,2.68-1.53,4.16-2.38l.43-.25.09-.05.44-.25.47-.27.36-.21h2.67v-1.56c.36-.21.72-.42,1.08-.64l1.39,1.81.3.39h2.61v-4.77c1.9-1.14,3.68-2.24,5.32-3.26l1.3,1.41v-2.23c.35-.22.7-.44,1.05-.66h0s0,0,0,0h.16s.18-.22.18-.22l.12-.08c.3-.19.6-.38.89-.58,2.07-1.34,3.97-2.61,5.65-3.79.32.2.64.36.99.49.74.29,1.59.43,2.51.43.62,0,1.21-.06,1.75-.18.55-.12,1.07-.3,1.55-.54.3-.15.59-.32.86-.51v.05s.13.86.13.86h5.35v-10.39s0-.07,0-.11c.1-.08.2-.16.31-.23.23-.16.44-.34.65-.51.15-.12.29-.24.42-.34v6.44c0,1.17.25,2.18.74,3.01.51.85,1.23,1.49,2.15,1.89.83.36,1.82.54,2.94.54h.11c1.12-.01,2.37-.21,3.73-.59l.73-.2v-5.39l-1.24.31c-.71.18-1.32.29-1.81.34-.11.01-.22.02-.32.02-.23,0-.42-.03-.56-.09-.09-.04-.17-.1-.23-.25-.07-.18-.16-.53-.16-1.2v-5.2h4.33v-5.29h-4.33v-.51c.34-.29.48-.77.35-1.2-.06-.22-.19-.41-.35-.56v-.56c.14-.09.27-.17.4-.23.39-.17.64-.45.85-.72.21-.28.28-.62.22-.95-.06-.34-.26-.61-.53-.77-.06-.34-.26-.64-.56-.81-.1-.06-.39-.23-.78-.23-.16,0-.32.03-.47.08l-.15.05c-.19.06-.4.14-.62.26-.32.18-.68.32-1.05.47.07-.05.14-.1.21-.16.14-.11.47-.34.58-.77.08-.05.16-.1.25-.16l.04-.03c.29-.18.59-.35.88-.52.28-.16.56-.32.84-.49.2-.12.38-.25.57-.38.26-.18.51-.35.75-.47.26-.13.47-.29.65-.44l.11-.09c.47-.36.59-1.01.3-1.51-.06-.1-.13-.18-.2-.26.02,0,.04-.02.06-.03.2-.09.36-.2.49-.29l.12-.08c.12-.08.24-.16.36-.24.23-.16.45-.3.66-.41.41-.2.78-.43,1.15-.65.18-.11.36-.22.54-.32.17-.1.33-.2.5-.3.24-.15.46-.29.68-.39.31-.15.61-.32.91-.49l.35-.19c.09-.05.18-.11.27-.17.04-.03.08-.06.12-.08.4-.16.72-.4,1-.6.17-.12.33-.24.48-.32.26-.14.41-.33.49-.44.34-.43.37-.97.08-1.38-.14-.2-.33-.35-.55-.44.37-.17.7-.38.94-.54l.1-.07c.19-.13.46-.3.68-.6.37-.51.3-1.16-.14-1.55-.19-.17-.47-.28-.77-.28h-.18l-.22.07-.15.06c-.14.05-.27.1-.41.16-.22-.38-.61-.62-1.04-.62-.13,0-.27.02-.39.07-.17.06-.31.14-.41.2l-.08.04-2.54,1.34-.37.19c-.35.18-.7.37-1.05.55-.16.08-.33.17-.49.25-.29.14-.58.29-.86.45-.32.18-.65.34-1,.5-.07-.37-.25-.69-.51-.91.04-.03.07-.05.11-.08l.39-.28c.09-.07.18-.13.28-.19.26-.18.56-.38.83-.64l.06-.04c.2-.15.78-.61.66-1.42.13-.09.26-.18.39-.27l.05-.03c.15-.09.42-.26.6-.59.13-.24.18-.53.14-.8-.02-.16-.08-.31-.17-.43.08-.05.17-.11.25-.16.39-.26.76-.5,1.14-.66.43-.18.75-.46.97-.69.28-.28.38-.7.25-1.09-.12-.4-.45-.7-.84-.78-.12-.02-.24-.03-.35-.03-.28,0-.56.06-.86.2-.42.19-.84.37-1.26.55-.42.18-.84.37-1.26.56l-.25.11c-.12.05-.23.1-.34.15-.02-.05-.04-.09-.07-.14.06-.03.12-.07.18-.11.22-.13.4-.25.56-.38.3-.25.48-.61.48-.98,0-.34-.13-.66-.37-.88-.22-.2-.51-.32-.8-.32-.17,0-.31.03-.41.07.31-.23.43-.51.49-.71.09-.35.03-.7-.16-.98-.19-.3-.57-.51-.95-.51h-.13l-.14.03c-.18.05-.36.11-.56.19-.42.17-.84.35-1.25.52-.18-.42-.58-.69-1.01-.69h-.07c-.14,0-.34,0-.57.08-.29.09-.63.2-.96.34-.06.03-.11.05-.17.08.01-.24-.05-.47-.18-.68-.2-.31-.51-.51-.85-.55-.11-.01-.2-.02-.29-.02-.31,0-.62.06-.9.18l-.1.04c-.19.08-.38.16-.54.21-1.69.5-3.43,1.12-5.49,1.93-.03.01-.07.03-.1.04,0-.16-.03-.33-.1-.48.07-.04.14-.09.21-.13.48-.29.68-.87.48-1.4-.02-.06-.05-.12-.08-.17.26-.18.52-.38.77-.59.01,0,.03-.02.05-.04.07-.05.14-.1.21-.15.26-.22.41-.54.41-.88.08-.05.17-.11.25-.16.21-.12.44-.22.68-.33l.08-.04c.32-.14.56-.34.74-.6.22-.33.25-.76.08-1.12-.17-.36-.49-.6-.88-.64-.08,0-.16-.01-.23-.01-.35,0-.65.1-.87.18-.32.13-.65.25-.97.37-.02,0-.04.02-.07.02.1-.27.11-.57,0-.85-.2-.48-.64-.78-1.15-.79,0,0,0,0,0,0-.23,0-.39.03-.55.08-.23.08-.46.15-.69.22-.58.18-1.19.37-1.78.63-.26.11-.53.21-.79.32,0,0,0,0,0,0,.11-.26.12-.57.02-.85-.14-.4-.47-.69-.87-.76-.13-.02-.25-.03-.37-.03h0ZM113.6,48.1c.13-.08.25-.16.38-.23-.12.18-.25.33-.39.47-.24.22-.5.39-.81.51,0,0,0,0,0,0,.3-.26.57-.51.82-.75h0Z"/>
        </g>
        <g>
          <path class="cls-4" d="M99.95,66.91c-2.38,0-4.31-1.89-4.31-4.21s1.91-4.21,4.35-4.21c1.13,0,2.2.4,3.02,1.12l.39.34-1.37,1.44-.36-.32c-.46-.41-1.04-.63-1.66-.63-1.29,0-2.29.99-2.29,2.25s.98,2.23,2.23,2.23c.57,0,1.1-.15,1.54-.45v-.72h-1.98v-1.76h3.98v3.53l-.18.15c-.92.79-2.12,1.22-3.37,1.22Z"/>
          <path class="cls-8" d="M100,59s.01,0,.02,0c.99,0,1.94.36,2.67,1l-.68.71c-.55-.48-1.24-.75-1.99-.75h0c-1.52,0-2.79,1.16-2.79,2.75s1.19,2.73,2.73,2.73c.79,0,1.5-.26,2.04-.7v-1.47h-1.98v-.76h2.98v2.8c-.8.68-1.87,1.1-3.04,1.1-2.1,0-3.81-1.66-3.81-3.71,0-2.2,1.8-3.71,3.85-3.71M100,58c-1.27,0-2.47.46-3.37,1.29-.95.88-1.48,2.09-1.48,3.41,0,2.6,2.16,4.71,4.81,4.71,1.37,0,2.68-.48,3.69-1.34l.35-.3v-4.26h-1.37l.1-.11.68-.71.72-.76-.79-.69c-.91-.8-2.09-1.24-3.33-1.24h-.02ZM99.02,64.16c-.48-.3-.79-.84-.79-1.46,0-1,.77-1.75,1.79-1.75.5,0,.96.17,1.33.5l.05.05h-2.38v2.66h0ZM99.19,64.26h1.66c-.27.11-.58.17-.9.17-.27,0-.53-.06-.76-.17h0Z"/>
        </g>
      </g>
      <g>
        <path class="cls-3" d="M138.66,16.73s-.11-.04-.16-.03c-.52.2-1.04.39-1.52.67-.4.24-.79.47-1.2.68-.61.32-1.23.62-1.83.96-.95.54-1.94,1-2.91,1.5-.08.04-.18.07-.27.08-.05,0-.12-.03-.14-.06-.02-.04-.01-.13.02-.15.13-.12.25-.25.4-.32.61-.28,1.15-.67,1.74-.99,1.28-.69,2.54-1.43,3.77-2.21.05-.03.1-.06.14-.1.08-.08.09-.17.03-.26-.05-.09-.14-.15-.24-.12-.12.04-.24.12-.36.18-.85.45-1.69.89-2.54,1.34-.47.25-.95.5-1.42.75-.44.23-.89.44-1.33.68-.5.28-1.03.52-1.55.76-.61.28-1.23.54-1.8.88-1.22.74-2.56,1.2-3.87,1.74-.11.04-.22.08-.35,0,.04-.21.2-.32.35-.42.76-.48,1.52-.97,2.28-1.44.73-.45,1.47-.89,2.21-1.34.06-.04.14-.08.18-.13.04-.06.09-.14.08-.2-.04-.38-.35-.57-.7-.4-.83.4-1.66.78-2.47,1.23-.53.3-1.09.57-1.64.84-.34.17-.7.32-1.05.46-.07.03-.18.08-.24-.06.14-.1.27-.22.41-.3.59-.36,1.18-.72,1.77-1.07,1.12-.68,2.18-1.42,3.22-2.2.35-.26.71-.52,1.07-.77.34-.25.7-.47,1.01-.75.17-.16.47-.29.4-.63-.27-.07-.47.11-.69.2-.17.08-.34.17-.51.25-.02.01-.08-.01-.1-.03-.01-.02,0-.08.02-.1.03-.05.07-.09.12-.12.66-.46,1.31-.93,1.97-1.39.13-.09.27-.15.35-.29.02-.04.04-.11.03-.16,0-.06-.07-.08-.13-.08-.16-.01-.3.03-.44.11-.25.13-.51.26-.77.38-.07.03-.15.06-.2-.02-.02-.03.03-.11.07-.14.16-.17.38-.26.57-.38.14-.09.24-.19.25-.36,0-.12.03-.23.13-.31.18-.15.34-.32.53-.43.6-.37,1.17-.81,1.83-1.08.25-.1.46-.28.64-.47.05-.05,0-.17-.07-.19-.22-.04-.42,0-.61.09-.84.37-1.68.74-2.52,1.11-.87.39-1.75.79-2.65,1.11-.27.1-.55.16-.83.23-.1.02-.2,0-.23-.11-.03-.08,0-.16.06-.21.21-.17.42-.33.64-.48.29-.18.6-.34.9-.52.1-.06.21-.11.2-.25,0-.1-.17-.13-.35-.06-.02,0-.04.02-.05.02-.73.34-1.46.68-2.19,1.01-.7.32-1.4.62-2.1.93-.16.07-.32.13-.5.11-.03,0-.07-.04-.07-.06,0-.03.01-.08.04-.1.04-.04.09-.07.14-.1,1.01-.6,2.02-1.17,3.01-1.79.84-.53,1.72-1,2.58-1.51.15-.09.29-.18.42-.29.13-.11.16-.28.08-.35-.1-.1-.21-.04-.32,0-.07.03-.15.05-.21.08-.54.34-1.14.54-1.72.79-.47.21-.97.34-1.46.51-.02,0-.08-.03-.08-.05,0-.03.01-.08.04-.1.14-.1.29-.18.44-.27.19-.12.39-.25.57-.38.1-.07.26-.12.22-.3-.02-.11-.2-.11-.41-.01-.03.02-.07.04-.1.06-.83.44-1.65.89-2.54,1.2-.09.03-.17.08-.26.12-.81.38-1.62.78-2.47,1.08-.23.08-.47.17-.71.23-.12.03-.22-.03-.29-.14-.06-.1-.03-.21.09-.29.27-.18.54-.37.82-.54.84-.5,1.72-.94,2.58-1.38,1.26-.65,2.51-1.32,3.8-1.9.28-.13.53-.3.8-.45.08-.05.16-.11.19-.21.01-.05.01-.12-.02-.16-.03-.04-.1-.08-.14-.07-.15.04-.29.09-.43.15-.85.35-1.7.71-2.54,1.06-.11.04-.21.1-.31.16-.58.32-1.2.48-1.84.62-.08.02-.16,0-.19-.09-.02-.07-.04-.16-.01-.22.02-.06.09-.13.15-.16.22-.12.44-.24.66-.35.41-.2.84-.38,1.23-.63.11-.07.23-.14.29-.27.02-.04.02-.11,0-.16,0-.02-.06-.06-.09-.05-.11,0-.23,0-.34.03-.29.09-.58.19-.86.31-.95.42-1.88.85-2.83,1.27-.87.39-1.74.79-2.62,1.18-.1.05-.21.08-.32.12-.06.02-.11,0-.14-.07-.01-.03,0-.08,0-.11.08-.16.24-.24.39-.33.69-.41,1.43-.73,2.15-1.1.5-.25.99-.51,1.48-.76.08-.04.17-.09.21-.19.01-.03.01-.08,0-.11-.02-.03-.06-.06-.09-.05-.07,0-.15.03-.22.06-.12.05-.24.12-.37.16-.09.03-.19.02-.26-.07-.06-.08-.02-.21.09-.3.2-.15.41-.28.66-.33.1-.02.19-.06.24-.14.05-.07.07-.14.03-.21-.03-.04-.08-.09-.13-.1-.23-.03-.46,0-.68.09-.25.1-.49.22-.75.29-1.84.55-3.63,1.2-5.42,1.9-.52.2-1.04.38-1.57.56-1,.34-2,.67-2.94,1.14-.17.08-.34.17-.54.17-.08,0-.16,0-.21-.06-.05-.08,0-.15.04-.21.19-.26.47-.39.74-.53.22-.12.45-.22.66-.34.74-.4,1.45-.85,2.13-1.35.06-.05.13-.09.17-.15.05-.06.06-.14.02-.22-.04-.08-.11-.1-.19-.08-.09.02-.18.06-.27.1-.63.27-1.26.55-1.9.82-.62.26-1.24.51-1.86.76-.07.03-.15.04-.19-.05-.03-.06.02-.11.07-.14.16-.11.31-.23.47-.33.72-.39,1.45-.77,2.18-1.16.51-.27,1.01-.54,1.51-.82.27-.15.53-.31.79-.47.06-.04.11-.11.07-.2-.02-.06-.08-.08-.13-.08-.25-.01-.49.02-.72.14-.66.35-1.36.6-2.05.89-.07.03-.15.05-.22.05-.05,0-.11-.03-.15-.06-.04-.05,0-.11.03-.15.02-.03.05-.06.09-.07.58-.26,1.08-.64,1.63-.96.86-.5,1.74-.97,2.5-1.63.09-.07.19-.13.28-.2.07-.06.04-.2-.05-.24-.05-.02-.11-.03-.17-.04-.06,0-.11-.02-.13-.09-.02-.07.02-.12.08-.14.4-.16.72-.44,1.09-.64.27-.15.55-.27.83-.4.13-.06.23-.13.31-.24.05-.08,0-.21-.08-.22-.22-.03-.41.03-.61.11-.75.29-1.51.56-2.25.86-.64.26-1.31.43-1.95.67-.99.36-1.97.73-3,.97-.19.04-.38.07-.57.05-.09,0-.14-.06-.17-.13-.02-.07-.03-.16.03-.22.05-.06.11-.1.17-.15.56-.4,1.16-.74,1.79-1.02.33-.15.65-.32.96-.51.71-.43,1.46-.77,2.2-1.12.12-.06.24-.12.36-.19.09-.05.13-.15.1-.25-.04-.09-.12-.15-.23-.15-.08,0-.16,0-.23.03-.8.27-1.62.48-2.39.82-.77.33-1.59.57-2.32.99-.03.02-.07.03-.11.04-.09.03-.19-.04-.21-.14-.03-.19-.05-.38,0-.57.04-.17.05-.34.04-.51-.03-.29,0-.54.34-.63.05-.01.09-.07.12-.11.07-.08.02-.26-.09-.28-.07-.01-.15-.02-.23-.02-.38.01-.76.09-1.13.16-.61.1-1.2.25-1.78.42-1.4.4-2.77.87-4.14,1.37-.7.26-1.4.53-2.1.77-1.62.54-3.24,1.04-4.85,1.59-1.11.37-2.2.77-3.29,1.19-1.68.65-3.35,1.33-5.02,2-.75.3-1.49.59-2.24.9-.55.23-1.08.48-1.63.72-.93.41-1.87.79-2.79,1.21-1.17.53-2.33,1.08-3.48,1.63-1.04.5-2.1.92-3.13,1.44-.95.48-1.93.92-2.89,1.39-.69.33-1.36.7-2.05,1.03-1.25.59-2.46,1.24-3.69,1.87-.75.39-1.5.76-2.25,1.14-.6.3-1.2.6-1.8.9-.48.24-.95.51-1.42.75-.75.38-1.51.75-2.25,1.14-.51.26-1,.57-1.53.8-.71.3-1.36.7-2.04,1.04-.96.48-1.89,1-2.83,1.51-.49.26-1,.49-1.47.79-.62.39-1.28.68-1.9,1.06-.88.54-1.82.99-2.72,1.49-.94.52-1.85,1.09-2.8,1.59-1.18.63-2.36,1.27-3.52,1.93-.48.27-.96.55-1.44.82-.55.31-1.11.6-1.65.93-.77.46-1.53.95-2.3,1.41-.61.37-1.23.71-1.84,1.07-1.34.78-2.69,1.55-4.02,2.35-.76.45-1.47.97-2.24,1.4-.55.31-1.06.68-1.6,1.02-1.09.7-2.19,1.41-3.26,2.15-.64.44-1.27.91-1.91,1.37-1.67,1.19-3.25,2.5-4.85,3.78-.45.36-.9.71-1.32,1.1-.81.76-1.69,1.43-2.46,2.24-.57.59-1.21,1.1-1.69,1.79-.43.62-.83,1.24-1.13,1.93-.26.59-.48,1.21-.72,1.81-.07.18-.12.37-.28.5-.41.32-.72.74-1.06,1.13-.33.37-.61.79-.86,1.22-.09.15-.16.31-.21.47-.15.45-.06.77.31,1.06.12.09.26.16.39.24.17.09.34.17.5.28.4.26.44.59.13.96-.17.21-.38.38-.58.56-.31.27-.34.51-.15.87.03.05.05.11.09.15.17.18.27.41.42.62.46.67.95,1.29,1.76,1.59.32.12.61.32.91.49.13.07.14.18.05.28-.05.06-.11.11-.16.16-.79.66-1.58,1.33-2.37,1.99-.37.31-.71.64-1.02,1.01-.19.23-.27.49-.26.8.01.31.1.61.2.89.09.28.17.54.07.84-.03.1,0,.23,0,.34,0,.14.08.26.21.32.29.14.58.31.88.42.24.08.36.2.36.44,0,.18.06.32.21.45.22.19.23.33.06.54-.18.23-.38.44-.57.65-.35.4-.59.85-.67,1.38-.08.51-.23,1.01-.44,1.48-.07.16-.13.32-.2.48-.07.17-.02.3.11.41.06.05.12.09.19.12.44.2.85.44,1.24.72.1.07.2.12.32.11.42-.03.85-.03,1.26-.1.54-.1,1.07-.26,1.61-.39.11-.03.23-.03.34-.04.15,0,.27.06.31.2.19.66.47,1.3.49,2,.02.43.15.83.3,1.22.04.11.1.21.19.28.45.31.92.52,1.49.51.81-.01,1.59-.22,2.36-.43.11-.03.22-.06.33-.07.13-.01.23.04.25.18.06.48.13.96.06,1.43-.04.31-.02.61-.03.91-.01.35.12.56.46.69.43.17.87.31,1.31.44.63.19,1.27.25,1.92.06.31-.09.35-.06.48.23.19.4.37.8.56,1.19.14.29.36.43.7.39.66-.08,1.33-.07,2-.2.56-.11,1.13-.15,1.68-.35.23-.08.35,0,.46.22.13.26.24.52.36.78.49,1.03,1.28,1.68,2.43,1.76.71.05,1.42-.01,2.12-.14.34-.06.68-.12,1.02-.13.54-.02,1.06-.12,1.57-.3.94-.33,1.88-.66,2.81-1.01.64-.24,1.27-.4,1.96-.25.31.07.64.09.97.09.52-.01,1.03-.13,1.52-.26,1.08-.28,2.1-.71,3.11-1.18.9-.42,1.79-.88,2.69-1.29.91-.42,1.78-.89,2.65-1.38.94-.52,1.85-1.1,2.77-1.64,1.11-.65,2.18-1.36,3.23-2.09,1.31-.91,2.69-1.68,4.07-2.47.58-.33,1.18-.63,1.78-.93.32-.17.66-.32.97-.51.87-.53,1.8-.94,2.67-1.45.54-.32,1.1-.62,1.66-.92.6-.33,1.2-.66,1.81-.99.49-.27.99-.5,1.46-.8.36-.23.71-.45,1.09-.63.36-.18.71-.36,1.07-.55h0s0,0,.02-.01c.02,0,.04-.02.07-.04.75-.4,1.48-.81,2.22-1.23.12-.07.23-.13.35-.2,1.03-.57,2.31-1.29,3.79-2.13.18-.09.37-.14.57-.16,0-.06.02-.12.02-.18,1.39-.79,2.94-1.67,4.58-2.62.14-.08.29-.16.43-.25.02-.01.05-.03.07-.04.31-.18.62-.36.93-.54,4.52-2.62,9.65-5.67,14.43-8.67.03.05.07.1.12.15,0-.1.02-.18.06-.26.56-.35,1.12-.71,1.67-1.06,0,0,0,0,0,0,.38-.24.76-.49,1.13-.73,5.17-3.33,9.64-6.49,12.02-8.78.98-.63,2.05-1.12,2.92-1.92.04-.04.1-.06.15-.09.47-.29.92-.61,1.32-1.01.07-.07.15-.11.23-.17.32-.24.66-.46.97-.71.49-.4.93-.85,1.45-1.21.42-.3.79-.66,1.22-.95.47-.32.88-.73,1.32-1.11.19-.16.38-.32.56-.49.22-.22.26-.38.07-.61-.18-.22-.12-.4.01-.56.31-.39.62-.78,1.01-1.1.62-.5,1.28-.97,1.96-1.39.34-.21.63-.49.94-.75.1-.09.02-.29-.12-.31-.07,0-.16,0-.22.03-.44.27-.87.55-1.31.82-.15.09-.29.18-.44.26-.28.16-.57.31-.85.48-.11.07-.21.21-.35.13-.17-.09-.1-.26-.07-.41,0-.02,0-.04,0-.06,0-.1-.07-.14-.15-.11-.2.08-.39.16-.58.26-.45.25-.9.52-1.35.77-.2.11-.41.2-.62.29-.03.01-.08,0-.1-.02-.04-.05-.04-.12,0-.15.21-.16.43-.32.65-.47.81-.57,1.69-1.06,2.41-1.76.04-.04.09-.07.14-.1.76-.51,1.52-1.03,2.3-1.51.44-.27.83-.62,1.3-.83.2-.09.34-.25.47-.42.03-.04.04-.11.03-.16-.02-.09-.09-.11-.17-.12-.18-.01-.34.05-.49.15-.32.21-.63.43-.96.64-.18.12-.36.23-.54.33-.12.06-.25.09-.39.04-.02,0-.05-.07-.04-.09.06-.07.12-.15.19-.21.47-.36.95-.72,1.42-1.08.14-.1.27-.21.4-.32.08-.07.05-.19-.04-.24-.12-.07-.24-.12-.38-.07-.22.08-.44.14-.64.25-.74.41-1.55.64-2.31,1-.4.18-.8.35-1.2.54-.31.15-.63.28-.95.41-.07.03-.16.02-.21-.04-.05-.07-.05-.15,0-.22.31-.39.59-.81,1.02-1.08.24-.15.45-.34.61-.63-.17-.02-.3-.03-.43-.06-.09-.02-.13-.17-.06-.24.06-.05.12-.1.18-.14.46-.31.96-.55,1.4-.9.12-.1.25-.16.24-.34,0-.15.08-.26.19-.34.17-.12.35-.23.53-.34.56-.35,1.15-.67,1.72-1.02.47-.29.9-.65,1.4-.9.22-.11.41-.28.61-.43.06-.05.08-.13.04-.21-.04-.07-.12-.09-.2-.07-.05.02-.11.04-.16.06-.5.19-.96.46-1.43.72-.63.35-1.31.61-1.89,1.06-.04.04-.1.06-.15.07-.25.04-.45.2-.67.31-.41.2-.83.4-1.25.59-.09.04-.19.06-.28,0-.03-.02-.06-.08-.05-.09.05-.06.1-.12.16-.16.54-.33,1.08-.66,1.61-1,.3-.19.62-.38.75-.75.03-.08.12-.15.2-.2.32-.21.64-.42.97-.62.4-.25.8-.52,1.21-.76.49-.29.96-.63,1.48-.87.17-.08.33-.2.49-.3.37-.24.72-.51,1.12-.7.57-.28,1.09-.63,1.64-.94.41-.24.81-.52,1.23-.73.42-.2.81-.44,1.21-.66.17-.09.32-.22.49-.29.52-.21.91-.62,1.4-.88.08-.04.14-.13.2-.21.04-.05.06-.1.02-.16-.05-.07-.12-.11-.2-.07-.19.08-.39.15-.58.25-1.06.58-2.11,1.18-3.16,1.76-.37.2-.74.4-1.12.58-.25.12-.5.2-.75-.02-.14-.12-.29-.07-.43,0-.36.18-.72.36-1.07.56-.48.28-.94.59-1.42.86-.99.55-1.99,1.07-2.98,1.61-.27.15-.53.3-.8.46-.32.19-.66.3-1,.43-.03.01-.09,0-.1-.02-.04-.05,0-.11.04-.14.39-.25.78-.48,1.17-.73.74-.47,1.48-.96,2.23-1.42.82-.5,1.65-.97,2.46-1.48.65-.41,1.29-.82,1.91-1.27.85-.6,1.75-1.11,2.65-1.6.44-.24.86-.49,1.29-.74.55-.31,1.06-.68,1.65-.94.3-.13.58-.3.84-.48.19-.13.39-.24.53-.43.05-.07.08-.14,0-.2ZM128.6,16.07s-.02-.02-.03-.02c.01,0,.02.02.03.02ZM128.56,16.04s-.01,0-.02,0c0,0,.01,0,.02,0,0,0,0,0,0,0ZM128.54,16.05s-.01,0-.02.01c.01,0,.03.02.04.03,0,0,0,0,0,0-.01-.01-.03-.02-.04-.03,0,0,.01,0,.02-.01Z"/>
        <g>
          <path class="cls-18" d="M34.14,59.1c2.09,0,3.01.79,3.01,2.46s-.97,2.42-2.99,2.42h-1.93v2.33h-1.04v-7.21h2.95ZM32.23,60v3.16h1.88c1.34,0,1.95-.48,1.95-1.57s-.58-1.59-1.97-1.59h-1.87Z"/>
          <path class="cls-18" d="M47.8,66.31h-1.24l-.76-1.74h-3.65l-.76,1.74h-1.24l3.13-7.21h1.36l3.14,7.21ZM42.44,63.72h3.07l-1.54-3.48-1.53,3.48Z"/>
          <path class="cls-18" d="M53.2,66.31h-1.04v-7.21h1.04v7.21Z"/>
          <path class="cls-18" d="M64.58,66.31h-1.12l-4.27-5.55v5.55h-1.03v-7.21h1.11l4.27,5.55v-5.55h1.03v7.21Z"/>
          <path class="cls-18" d="M74.7,59.99h-2.4v6.31h-1.05v-6.31h-2.4v-.89h5.85v.89Z"/>
          <path class="cls-18" d="M80.09,66.31h-1.04v-7.21h1.04v7.21Z"/>
          <path class="cls-18" d="M91.47,66.31h-1.12l-4.27-5.55v5.55h-1.03v-7.21h1.11l4.27,5.55v-5.55h1.03v7.21Z"/>
          <path class="cls-18" d="M102.69,59.99l-.68.71c-.55-.49-1.25-.75-1.99-.75-1.52,0-2.79,1.16-2.79,2.75s1.19,2.73,2.73,2.73c.79,0,1.5-.26,2.04-.7v-1.47h-1.98v-.76h2.98v2.8c-.8.68-1.87,1.1-3.04,1.1-2.1,0-3.81-1.66-3.81-3.71,0-2.21,1.81-3.72,3.87-3.71.99,0,1.94.36,2.67,1Z"/>
        </g>
        <g>
          <g>
            <polygon class="cls-19" points="79.08 39.79 79.31 40.44 79.75 40.79 79.31 41.14 79.08 41.79 78.84 41.14 78.4 40.79 78.84 40.44 79.08 39.79"/>
            <g>
              <polygon class="cls-5" points="78.02 41.79 78.63 43.08 79.75 43.79 78.63 44.5 78.02 45.79 77.4 44.5 76.28 43.79 77.4 43.08 78.02 41.79"/>
              <path class="cls-10" d="M78.71,43.13l-.08-.05-.61-1.29-.61,1.29-1.12.71.41.26c.12.02.24.03.36.03.71,0,1.32-.38,1.66-.95Z"/>
            </g>
            <g>
              <polygon class="cls-9" points="75.64 39.74 76.12 41.04 76.99 41.74 76.12 42.45 75.64 43.74 75.16 42.45 74.29 41.74 75.16 41.04 75.64 39.74"/>
              <path class="cls-11" d="M76.22,41.12l-.1-.08-.48-1.29-.48,1.29-.79.64c.18.07.38.12.58.12.53,0,.99-.27,1.26-.67Z"/>
            </g>
          </g>
          <g>
            <g>
              <path class="cls-17" d="M84.64,49.92h0c.08.13.06.3-.04.41-.48.49-1.1.93-1.84,1.33-.84.45-1.78.8-2.8,1.05s-2.06.38-3.09.38c-1.61,0-3.08-.27-4.43-.81-1.35-.54-2.52-1.3-3.52-2.29-1-.98-1.76-2.15-2.3-3.5-.54-1.35-.81-2.84-.81-4.46s.29-3.05.85-4.39c.57-1.34,1.36-2.5,2.36-3.49,1.01-.98,2.19-1.75,3.57-2.3,1.37-.55,2.87-.82,4.5-.82,1.02,0,2.01.13,2.99.4.97.26,1.88.66,2.73,1.17.84.52,1.57,1.13,2.18,1.84l-3.17,3.63c-.43-.45-.88-.84-1.36-1.17-.48-.34-1-.59-1.57-.78-.57-.18-1.18-.27-1.83-.27-.81,0-1.58.15-2.3.44-.72.29-1.35.71-1.89,1.25-.54.54-.96,1.19-1.26,1.97-.3.77-.46,1.64-.46,2.59s.15,1.78.46,2.54c.31.76.73,1.42,1.28,1.97.55.55,1.21.97,2,1.25.78.29,1.65.43,2.6.43.65,0,1.27-.09,1.86-.27.42-.13.81-.29,1.19-.49.1-.05.23-.03.3.07h0c.07.1.22.13.32.05l1.25-.89c.1-.07.23-.04.3.06h0c.06.09.03.22-.06.28l-.42.3c-.2.14-.24.41-.1.61h0c.14.2.41.24.61.1l.36-.25c.1-.07.24-.04.3.06h0c.06.1.03.23-.06.29l-2.03,1.32c-.2.13-.26.4-.13.61h0c.13.2.4.26.61.13l1.98-1.28c.12-.08.28-.04.36.08h0c.07.12.04.27-.07.35l-1.3.93c-.1.07-.12.21-.05.31h0c.07.1.21.12.31.05l1.2-.85c.16-.11.37-.07.47.09Z"/>
              <path class="cls-14" d="M84.38,47.43l-.47.33c-.09.07-.23.04-.29-.05h0c-.07-.09-.04-.23.05-.29l.47-.33c.09-.07.23-.04.29.05h0c.07.09.04.23-.05.29Z"/>
              <path class="cls-12" d="M87.06,48.47l-.69.49c-.1.07-.24.05-.32-.05h0c-.07-.1-.05-.24.05-.32l.69-.49c.1-.07.24-.05.32.05h0c.07.1.05.24-.05.32Z"/>
              <path class="cls-15" d="M85.36,45.11l-2.08,1.47c-.09.07-.23.04-.29-.05h0c-.07-.09-.04-.23.05-.29l2.08-1.47c.09-.07.23-.04.29.05h0c.07.09.04.23-.05.29Z"/>
              <path class="cls-6" d="M86.78,47.33l-1.65,1.17c-.09.07-.22.04-.28-.05h0c-.07-.09-.04-.22.05-.28l1.65-1.17c.09-.07.22-.04.28.05h0c.07.09.04.22-.05.28Z"/>
              <path class="cls-16" d="M84.09,49.05s.04.09.04.14c0,.08-.04.16-.11.21l-1.3.93c-.1.07-.12.21-.05.31.03.04.07.07.11.08-1.44.83-3.11,1.31-4.9,1.31-5.4,0-9.78-4.38-9.78-9.78s4.38-9.78,9.78-9.78c2.54,0,4.85.96,6.58,2.55l-2.67,3.06c-.43-.45-.88-.84-1.36-1.17-.48-.34-1-.59-1.57-.78-.57-.18-1.18-.27-1.83-.27-.81,0-1.58.15-2.3.44-.72.29-1.35.71-1.89,1.25-.54.54-.96,1.19-1.26,1.97-.3.77-.46,1.64-.46,2.59s.15,1.78.46,2.54c.31.76.73,1.42,1.28,1.97.55.55,1.21.97,2,1.25.78.29,1.65.43,2.6.43.65,0,1.27-.09,1.86-.27.42-.13.81-.29,1.18-.49.1-.05.23-.03.3.07.05.06.12.1.19.1.05,0,.09-.01.13-.04l1.25-.89c.1-.07.23-.04.3.06.02.03.03.07.03.11,0,.06-.03.13-.09.17l-.42.3c-.2.14-.24.41-.1.61.09.12.22.19.36.19.09,0,.18-.03.25-.08l.36-.25c.1-.07.24-.04.3.06.02.04.03.07.03.11,0,.07-.03.14-.1.18l-2.03,1.32c-.2.13-.26.4-.13.61.08.13.22.2.37.2.08,0,.16-.02.24-.07l1.98-1.28c.12-.08.28-.04.36.08Z"/>
            </g>
            <g>
              <g>
                <path class="cls-7" d="M82.48,38.58l3.08-3.51s0,0,0-.01l-.31-.44s-.01,0-.02,0l-3.25,3.7s0,.01,0,.02l.48.25s0,0,.01,0Z"/>
                <path class="cls-2" d="M86.17,39.27c.35.35.81.57,1.3.63h.09c-.09-.57-.41-1.1-.88-1.45l-1.34-1c-.06-.04-.08-.12-.07-.18l.43-1.95s0,0,0,0l-2.98,3.39s0,0,0,0l1.96-.74c.07-.03.14,0,.19.04l1.3,1.27ZM86.66,39.39c-.1-.08-.11-.23-.02-.33.08-.1.23-.11.33-.02.1.08.11.23.02.33-.08.1-.23.11-.33.02Z"/>
              </g>
              <polygon class="cls-13" points="84.63 35.3 84.96 35.75 82.46 38.58 81.99 38.34 84.63 35.3"/>
              <path class="cls-1" d="M85.04,36.06l.3.89-.07.31s-.03.11.07.18l.45,1.45-.92-.9s-.08-.08-.19-.04c-.11.04-1.96.74-1.96.74l2.31-2.64Z"/>
            </g>
          </g>
        </g>
        <g>
          <path class="cls-4" d="M1,31.95h4.52l9.74,13.84v-13.84h4.17v20.8h-4.3l-9.92-14.41v14.41H1v-20.8Z"/>
          <path class="cls-4" d="M35.2,51.1c-.27.21-.62.43-1.03.66-.41.23-.88.45-1.42.65-.54.2-1.13.36-1.77.49-.64.13-1.31.19-2.01.19-1.22,0-2.33-.21-3.32-.62-.99-.41-1.83-.97-2.53-1.69-.7-.72-1.24-1.55-1.63-2.51-.39-.96-.58-2-.58-3.11s.2-2.13.6-3.1c.4-.97.95-1.81,1.66-2.51.71-.71,1.55-1.26,2.54-1.68.99-.41,2.08-.62,3.26-.62,1.24,0,2.35.21,3.33.62s1.81.97,2.48,1.68c.67.71,1.19,1.54,1.53,2.5.35.96.52,2,.52,3.11,0,.23-.01.47-.03.71-.02.24-.05.48-.09.71l-11.54-.03c.13.51.32.94.58,1.31.26.37.57.68.93.95.36.26.76.46,1.2.6.44.14.91.21,1.39.21.55,0,1.04-.05,1.47-.16.43-.11.8-.23,1.11-.36.31-.14.57-.28.79-.43.22-.15.4-.28.52-.41l2.02,2.84ZM32.45,42.62c-.17-.41-.41-.76-.73-1.04s-.7-.51-1.14-.66c-.44-.16-.94-.24-1.49-.24s-1.01.07-1.45.22c-.44.15-.84.36-1.19.65-.35.28-.64.63-.87,1.04-.23.41-.4.87-.51,1.37h7.65c-.02-.48-.12-.93-.28-1.34Z"/>
          <path class="cls-4" d="M41.74,37.51l2.97,4.61h.06l3-4.61h4.68l-5.25,7.46v.06l5.4,7.71h-4.68l-3.16-4.84h-.06l-3.16,4.84h-4.68l5.44-7.71v-.06l-5.22-7.46h4.65Z"/>
          <path class="cls-4" d="M54.98,37.51l.88-4.11h3.19v4.11h4.33v3.29h-4.33v6.2c0,.67.08,1.2.24,1.58.16.38.42.64.77.79.36.15.81.2,1.36.14.55-.05,1.2-.17,1.96-.36v3.35c-1.29.36-2.44.54-3.48.55-1.03.01-1.91-.14-2.64-.46-.73-.32-1.29-.81-1.69-1.49-.4-.67-.6-1.51-.6-2.5v-7.81h-2.53v-3.29h2.53Z"/>
          <path class="cls-4" d="M88.87,42.1c.42-.97,1-1.81,1.74-2.53.74-.72,1.62-1.28,2.64-1.69,1.02-.41,2.13-.62,3.33-.62s2.31.21,3.33.62c1.02.41,1.91.97,2.65,1.69.75.72,1.33,1.56,1.75,2.53.42.97.63,1.99.63,3.07s-.21,2.1-.63,3.07c-.42.97-1.01,1.81-1.75,2.53-.75.72-1.63,1.29-2.65,1.71-1.02.42-2.13.63-3.33.63s-2.31-.21-3.33-.63c-1.02-.42-1.9-.99-2.64-1.71-.74-.72-1.32-1.56-1.74-2.53-.42-.97-.63-1.99-.63-3.07s.21-2.1.63-3.07ZM92.56,46.82c.22.54.52,1.01.9,1.41.38.4.84.72,1.37.95.54.23,1.11.35,1.72.35s1.21-.12,1.74-.35c.53-.23.98-.55,1.36-.95.38-.4.68-.86.9-1.39.22-.53.33-1.1.33-1.71s-.11-1.15-.33-1.69c-.22-.54-.52-1.01-.9-1.41-.38-.4-.83-.72-1.36-.95-.53-.23-1.11-.35-1.74-.35s-1.19.12-1.72.35c-.54.23-1,.55-1.37.95-.38.4-.68.86-.9,1.39-.22.53-.33,1.1-.33,1.71s.11,1.15.33,1.69Z"/>
          <path class="cls-4" d="M107.96,42.48l-2.24-2.66c.21-.21.52-.47.93-.77.41-.31.9-.6,1.47-.87.57-.27,1.22-.51,1.94-.7.73-.19,1.52-.28,2.39-.28.93,0,1.81.12,2.64.36.83.24,1.56.62,2.18,1.12.62.51,1.11,1.14,1.47,1.91.36.77.54,1.69.54,2.77v9.39h-3.48l-.28-2.02c-.27.36-.57.69-.9.98-.33.3-.7.54-1.11.74-.41.2-.85.35-1.33.46-.47.11-.99.16-1.53.16-.8,0-1.52-.12-2.15-.36-.63-.24-1.17-.57-1.61-1-.44-.42-.78-.91-1.01-1.47-.23-.56-.35-1.16-.35-1.82s.14-1.3.41-1.88c.27-.58.7-1.08,1.28-1.5.58-.42,1.31-.76,2.2-1.01.88-.25,1.94-.38,3.16-.38h2.84v-.22c0-.89-.26-1.57-.79-2.05-.53-.48-1.32-.73-2.37-.73-.49,0-.95.06-1.41.19-.45.13-.86.28-1.23.47-.37.19-.7.39-1,.6-.3.21-.52.4-.66.57ZM115.42,46.14l-2.59-.03c-1.14,0-1.95.21-2.43.62-.48.41-.73.89-.73,1.44,0,.23.05.46.14.68.09.22.23.42.41.58.18.17.41.31.7.43.28.12.62.17,1,.17.4,0,.81-.08,1.23-.25.42-.17.8-.41,1.12-.71.33-.31.6-.68.82-1.12.22-.44.33-.95.33-1.52v-.28Z"/>
          <path class="cls-4" d="M122.66,37.51l.88-4.11h3.19v4.11h4.33v3.29h-4.33v6.2c0,.67.08,1.2.24,1.58.16.38.42.64.77.79.36.15.81.2,1.36.14.55-.05,1.2-.17,1.96-.36v3.35c-1.29.36-2.44.54-3.48.55-1.03.01-1.91-.14-2.64-.46-.73-.32-1.29-.81-1.69-1.49-.4-.67-.6-1.51-.6-2.5v-7.81h-2.53v-3.29h2.53Z"/>
        </g>
      </g>
    </g>
  </g>
</svg>