<?xml version="1.0" encoding="UTF-8"?>
<svg id="Layer_2" data-name="Layer 2" xmlns="http://www.w3.org/2000/svg" xmlns:xlink="http://www.w3.org/1999/xlink" viewBox="0 0 137.7 91.9">
  <defs>
    <style>
      .cls-1 {
        fill: url(#linear-gradient-15);
      }

      .cls-2 {
        fill: url(#linear-gradient-13);
      }

      .cls-3 {
        fill: #abdee5;
      }

      .cls-4 {
        fill: #0d2c4c;
      }

      .cls-5 {
        fill: url(#linear-gradient-2);
      }

      .cls-6 {
        fill: url(#linear-gradient-10);
      }

      .cls-7 {
        fill: url(#linear-gradient-12);
      }

      .cls-8 {
        fill: #fff;
      }

      .cls-9 {
        fill: url(#linear-gradient-4);
      }

      .cls-10 {
        fill: url(#linear-gradient-3);
      }

      .cls-11 {
        fill: url(#linear-gradient-5);
      }

      .cls-12 {
        fill: url(#linear-gradient-8);
      }

      .cls-13 {
        fill: url(#linear-gradient-14);
      }

      .cls-14 {
        fill: url(#linear-gradient-7);
      }

      .cls-15 {
        fill: url(#linear-gradient-9);
      }

      .cls-16 {
        fill: url(#linear-gradient-11);
      }

      .cls-17 {
        fill: url(#linear-gradient-6);
      }

      .cls-18 {
        fill: url(#linear-gradient);
      }
    </style>
    <linearGradient id="linear-gradient" x1="-1575.36" y1="-1272.07" x2="-1573.3" y2="-1269.54" gradientTransform="translate(1652.98 1311.3)" gradientUnits="userSpaceOnUse">
      <stop offset="0" stop-color="#f3911f"/>
      <stop offset=".74" stop-color="#e43634"/>
    </linearGradient>
    <linearGradient id="linear-gradient-2" x1="-1577.29" y1="-1269.97" x2="-1574.36" y2="-1266.74" gradientTransform="translate(1652.98 1311.3)" gradientUnits="userSpaceOnUse">
      <stop offset=".17" stop-color="#f3911f"/>
      <stop offset=".32" stop-color="#f28b20"/>
      <stop offset=".52" stop-color="#ef7a24"/>
      <stop offset=".74" stop-color="#ea5e2a"/>
      <stop offset=".98" stop-color="#e43833"/>
      <stop offset="1" stop-color="#e43634"/>
    </linearGradient>
    <linearGradient id="linear-gradient-3" x1="-1579.42" y1="-1274.78" x2="-1571.79" y2="-1259.32" gradientTransform="translate(1652.98 1311.3)" gradientUnits="userSpaceOnUse">
      <stop offset="0" stop-color="#fff" stop-opacity="0"/>
      <stop offset="1" stop-color="#fff" stop-opacity=".4"/>
    </linearGradient>
    <linearGradient id="linear-gradient-4" x1="-1579.23" y1="-1271.64" x2="-1574.83" y2="-1266.26" gradientTransform="translate(1652.98 1311.3)" gradientUnits="userSpaceOnUse">
      <stop offset="0" stop-color="#f3911f"/>
      <stop offset=".76" stop-color="#e43634"/>
    </linearGradient>
    <linearGradient id="linear-gradient-5" x1="-1580.17" y1="-1274.29" x2="-1576.54" y2="-1266.09" gradientTransform="translate(1652.98 1311.3)" gradientUnits="userSpaceOnUse">
      <stop offset=".3" stop-color="#fff" stop-opacity="0"/>
      <stop offset=".42" stop-color="#fff" stop-opacity=".02"/>
      <stop offset=".57" stop-color="#fff" stop-opacity=".09"/>
      <stop offset=".74" stop-color="#fff" stop-opacity=".19"/>
      <stop offset=".93" stop-color="#fff" stop-opacity=".33"/>
      <stop offset="1" stop-color="#fff" stop-opacity=".4"/>
    </linearGradient>
    <linearGradient id="linear-gradient-6" x1="-1589.63" y1="-1280.92" x2="-1554.29" y2="-1250.59" gradientTransform="translate(1652.98 1311.3)" gradientUnits="userSpaceOnUse">
      <stop offset="0" stop-color="#f3911f"/>
      <stop offset="1" stop-color="#e43634"/>
    </linearGradient>
    <linearGradient id="linear-gradient-7" x1="-1574.06" y1="-1264.17" x2="-1562.21" y2="-1266.19" xlink:href="#linear-gradient-6"/>
    <linearGradient id="linear-gradient-8" x1="-1573.8" y1="-1262.67" x2="-1561.96" y2="-1264.69" xlink:href="#linear-gradient-6"/>
    <linearGradient id="linear-gradient-9" x1="-1574.34" y1="-1265.84" x2="-1562.5" y2="-1267.86" xlink:href="#linear-gradient-6"/>
    <linearGradient id="linear-gradient-10" x1="-1573.95" y1="-1263.56" x2="-1562.11" y2="-1265.58" xlink:href="#linear-gradient-6"/>
    <linearGradient id="linear-gradient-11" x1="-1576.3" y1="-1281.13" x2="-1580.72" y2="-1240.74" xlink:href="#linear-gradient-3"/>
    <linearGradient id="linear-gradient-12" x1="-1571.68" y1="-1276.92" x2="-1567.3" y2="-1273.26" gradientTransform="translate(1652.98 1311.3)" gradientUnits="userSpaceOnUse">
      <stop offset=".2" stop-color="#e43634"/>
      <stop offset=".23" stop-color="#e53e32"/>
      <stop offset=".36" stop-color="#ea5c2b"/>
      <stop offset=".5" stop-color="#ee7325"/>
      <stop offset=".64" stop-color="#f08421"/>
      <stop offset=".8" stop-color="#f28d1f"/>
      <stop offset="1" stop-color="#f3911f"/>
    </linearGradient>
    <linearGradient id="linear-gradient-13" x1="1421.21" y1="-1075.25" x2="1426.37" y2="-1069.48" gradientTransform="translate(1154.87 1463.19) rotate(-90)" gradientUnits="userSpaceOnUse">
      <stop offset="0" stop-color="#e43634"/>
      <stop offset="1" stop-color="#f3911f"/>
    </linearGradient>
    <linearGradient id="linear-gradient-14" x1="-1572.12" y1="-1278.89" x2="-1567.65" y2="-1268.82" xlink:href="#linear-gradient-3"/>
    <linearGradient id="linear-gradient-15" x1="-1571.99" y1="-1279.17" x2="-1565.88" y2="-1265.4" xlink:href="#linear-gradient-3"/>
  </defs>
  <g id="Back_Side" data-name="Back Side">
    <g>
      <path class="cls-3" d="M137.66,15.73s-.11-.04-.16-.03c-.52.2-1.04.39-1.52.67-.4.24-.79.47-1.2.68-.61.32-1.23.62-1.83.96-.95.54-1.94,1-2.91,1.5-.08.04-.18.07-.27.08-.05,0-.12-.03-.14-.06-.02-.04-.01-.13.02-.15.13-.12.25-.25.4-.32.61-.28,1.15-.67,1.74-.99,1.28-.69,2.54-1.43,3.77-2.21.05-.03.1-.06.14-.1.08-.08.09-.17.03-.26-.05-.09-.14-.15-.24-.12-.12.04-.24.12-.36.18-.85.45-1.69.89-2.54,1.34-.47.25-.95.5-1.42.75-.44.23-.89.44-1.33.68-.5.28-1.03.52-1.55.76-.61.28-1.23.54-1.8.88-1.22.74-2.56,1.2-3.87,1.74-.11.04-.22.08-.35,0,.04-.21.2-.32.35-.42.76-.48,1.52-.97,2.28-1.44.73-.45,1.47-.89,2.21-1.34.06-.04.14-.08.18-.13.04-.06.09-.14.08-.2-.04-.38-.35-.57-.7-.4-.83.4-1.66.78-2.47,1.23-.53.3-1.09.57-1.64.84-.34.17-.7.32-1.05.46-.07.03-.18.08-.24-.06.14-.1.27-.22.41-.3.59-.36,1.18-.72,1.77-1.07,1.12-.68,2.18-1.42,3.22-2.2.35-.26.71-.52,1.07-.77.34-.25.7-.47,1.01-.75.17-.16.47-.29.4-.63-.27-.07-.47.11-.69.2-.17.08-.34.17-.51.25-.02.01-.08-.01-.1-.03-.01-.02,0-.08.02-.1.03-.05.07-.09.12-.12.66-.46,1.31-.93,1.97-1.39.13-.09.27-.15.35-.29.02-.04.04-.11.03-.16,0-.06-.07-.08-.13-.08-.16-.01-.3.03-.44.11-.25.13-.51.26-.77.38-.07.03-.15.06-.2-.02-.02-.03.03-.11.07-.14.16-.17.38-.26.57-.38.14-.09.24-.19.25-.36,0-.12.03-.23.13-.31.18-.15.34-.32.53-.43.6-.37,1.17-.81,1.83-1.08.25-.1.46-.28.64-.47.05-.05,0-.17-.07-.19-.22-.04-.42,0-.61.09-.84.37-1.68.74-2.52,1.11-.87.39-1.75.79-2.65,1.11-.27.1-.55.16-.83.23-.1.02-.2,0-.23-.11-.03-.08,0-.16.06-.21.21-.17.42-.33.64-.48.29-.18.6-.34.9-.52.1-.06.21-.11.2-.25,0-.1-.17-.13-.35-.06-.02,0-.04.02-.05.02-.73.34-1.46.68-2.19,1.01-.7.32-1.4.62-2.1.93-.16.07-.32.13-.5.11-.03,0-.07-.04-.07-.06,0-.03.01-.08.04-.1.04-.04.09-.07.14-.1,1.01-.6,2.02-1.17,3.01-1.79.84-.53,1.72-1,2.58-1.51.15-.09.29-.18.42-.29.13-.11.16-.28.08-.35-.1-.1-.21-.04-.32,0-.07.03-.15.05-.21.08-.54.34-1.14.54-1.72.79-.47.21-.97.34-1.46.51-.02,0-.08-.03-.08-.05,0-.03.01-.08.04-.1.14-.1.29-.18.44-.27.19-.12.39-.25.57-.38.1-.07.26-.12.22-.3-.02-.11-.2-.11-.41-.01-.03.02-.07.04-.1.06-.83.44-1.65.89-2.54,1.2-.09.03-.17.08-.26.12-.81.38-1.62.78-2.47,1.08-.23.08-.47.17-.71.23-.12.03-.22-.03-.29-.14-.06-.1-.03-.21.09-.29.27-.18.54-.37.82-.54.84-.5,1.72-.94,2.58-1.38,1.26-.65,2.51-1.32,3.8-1.9.28-.13.53-.3.8-.45.08-.05.16-.11.19-.21.01-.05.01-.12-.02-.16-.03-.04-.1-.08-.14-.07-.15.04-.29.09-.43.15-.85.35-1.7.71-2.54,1.06-.11.04-.21.1-.31.16-.58.32-1.2.48-1.84.62-.08.02-.16,0-.19-.09-.02-.07-.04-.16-.01-.22.02-.06.09-.13.15-.16.22-.12.44-.24.66-.35.41-.2.84-.38,1.23-.63.11-.07.23-.14.29-.27.02-.04.02-.11,0-.16,0-.02-.06-.06-.09-.05-.11,0-.23,0-.34.03-.29.09-.58.19-.86.31-.95.42-1.88.85-2.83,1.27-.87.39-1.74.79-2.62,1.18-.1.05-.21.08-.32.12-.06.02-.11,0-.14-.07-.01-.03,0-.08,0-.11.08-.16.24-.24.39-.33.69-.41,1.43-.73,2.15-1.1.5-.25.99-.51,1.48-.76.08-.04.17-.09.21-.19.01-.03.01-.08,0-.11-.02-.03-.06-.06-.09-.05-.07,0-.15.03-.22.06-.12.05-.24.12-.37.16-.09.03-.19.02-.26-.07-.06-.08-.02-.21.09-.3.2-.15.41-.28.66-.33.1-.02.19-.06.24-.14.05-.07.07-.14.03-.21-.03-.04-.08-.09-.13-.1-.23-.03-.46,0-.68.09-.25.1-.49.22-.75.29-1.84.55-3.63,1.2-5.42,1.9-.52.2-1.04.38-1.57.56-1,.34-2,.67-2.94,1.14-.17.08-.34.17-.54.17-.08,0-.16,0-.21-.06-.05-.08,0-.15.04-.21.19-.26.47-.39.74-.53.22-.12.45-.22.66-.34.74-.4,1.45-.85,2.13-1.35.06-.05.13-.09.17-.15.05-.06.06-.14.02-.22-.04-.08-.11-.1-.19-.08-.09.02-.18.06-.27.1-.63.27-1.26.55-1.9.82-.62.26-1.24.51-1.86.76-.07.03-.15.04-.19-.05-.03-.06.02-.11.07-.14.16-.11.31-.23.47-.33.72-.39,1.45-.77,2.18-1.16.51-.27,1.01-.54,1.51-.82.27-.15.53-.31.79-.47.06-.04.11-.11.07-.2-.02-.06-.08-.08-.13-.08-.25-.01-.49.02-.72.14-.66.35-1.36.6-2.05.89-.07.03-.15.05-.22.05-.05,0-.11-.03-.15-.06-.04-.05,0-.11.03-.15.02-.03.05-.06.09-.07.58-.26,1.08-.64,1.63-.96.86-.5,1.74-.97,2.5-1.63.09-.07.19-.13.28-.2.07-.06.04-.2-.05-.24-.05-.02-.11-.03-.17-.04-.06,0-.11-.02-.13-.09-.02-.07.02-.12.08-.14.4-.16.72-.44,1.09-.64.27-.15.55-.27.83-.4.13-.06.23-.13.31-.24.05-.08,0-.21-.08-.22-.22-.03-.41.03-.61.11-.75.29-1.51.56-2.25.86-.64.26-1.31.43-1.95.67-.99.36-1.97.73-3,.97-.19.04-.38.07-.57.05-.09,0-.14-.06-.17-.13-.02-.07-.03-.16.03-.22.05-.06.11-.1.17-.15.56-.4,1.16-.74,1.79-1.02.33-.15.65-.32.96-.51.71-.43,1.46-.77,2.2-1.12.12-.06.24-.12.36-.19.09-.05.13-.15.1-.25-.04-.09-.12-.15-.23-.15-.08,0-.16,0-.23.03-.8.27-1.62.48-2.39.82-.77.33-1.59.57-2.32.99-.03.02-.07.03-.11.04-.09.03-.19-.04-.21-.14-.03-.19-.05-.38,0-.57.04-.17.05-.34.04-.51-.03-.29,0-.54.34-.63.05-.01.09-.07.12-.11.07-.08.02-.26-.09-.28-.07-.01-.15-.02-.23-.02-.38.01-.76.09-1.13.16-.61.1-1.2.25-1.78.42-1.4.4-2.77.87-4.14,1.37-.7.26-1.4.53-2.1.77-1.62.54-3.24,1.04-4.85,1.59-1.11.37-2.2.77-3.29,1.19-1.68.65-3.35,1.33-5.02,2-.75.3-1.49.59-2.24.9-.55.23-1.08.48-1.63.72-.93.41-1.87.79-2.79,1.21-1.17.53-2.33,1.08-3.48,1.63-1.04.5-2.1.92-3.13,1.44-.95.48-1.93.92-2.89,1.39-.69.33-1.36.7-2.05,1.03-1.25.59-2.46,1.24-3.69,1.87-.75.39-1.5.76-2.25,1.14-.6.3-1.2.6-1.8.9-.48.24-.95.51-1.42.75-.75.38-1.51.75-2.25,1.14-.51.26-1,.57-1.53.8-.71.3-1.36.7-2.04,1.04-.96.48-1.89,1-2.83,1.51-.49.26-1,.49-1.47.79-.62.39-1.28.68-1.9,1.06-.88.54-1.82.99-2.72,1.49-.94.52-1.85,1.09-2.8,1.59-1.18.63-2.36,1.27-3.52,1.93-.48.27-.96.55-1.44.82-.55.31-1.11.6-1.65.93-.77.46-1.53.95-2.3,1.41-.61.37-1.23.71-1.84,1.07-1.34.78-2.69,1.55-4.02,2.35-.76.45-1.47.97-2.24,1.4-.55.31-1.06.68-1.6,1.02-1.09.7-2.19,1.41-3.26,2.15-.64.44-1.27.91-1.91,1.37-1.67,1.19-3.25,2.5-4.85,3.78-.45.36-.9.71-1.32,1.1-.81.76-1.69,1.43-2.46,2.24-.57.59-1.21,1.1-1.69,1.79-.43.62-.83,1.24-1.13,1.93-.26.59-.48,1.21-.72,1.81-.07.18-.12.37-.28.5-.41.32-.72.74-1.06,1.13-.33.37-.61.79-.86,1.22-.09.15-.16.31-.21.47-.15.45-.06.77.31,1.06.12.09.26.16.39.24.17.09.34.17.5.28.4.26.44.59.13.96-.17.21-.38.38-.58.56-.31.27-.34.51-.15.87.03.05.05.11.09.15.17.18.27.41.42.62.46.67.95,1.29,1.76,1.59.32.12.61.32.91.49.13.07.14.18.05.28-.05.06-.11.11-.16.16-.79.66-1.58,1.33-2.37,1.99-.37.31-.71.64-1.02,1.01-.19.23-.27.49-.26.8.01.31.1.61.2.89.09.28.17.54.07.84-.03.1,0,.23,0,.34,0,.14.08.26.21.32.29.14.58.31.88.42.24.08.36.2.36.44,0,.18.06.32.21.45.22.19.23.33.06.54-.18.23-.38.44-.57.65-.35.4-.59.85-.67,1.38-.08.51-.23,1.01-.44,1.48-.07.16-.13.32-.2.48-.07.17-.02.3.11.41.06.05.12.09.19.12.44.2.85.44,1.24.72.1.07.2.12.32.11.42-.03.85-.03,1.26-.1.54-.1,1.07-.26,1.61-.39.11-.03.23-.03.34-.04.15,0,.27.06.31.2.19.66.47,1.3.49,2,.02.43.15.83.3,1.22.04.11.1.21.19.28.45.31.92.52,1.49.51.81-.01,1.59-.22,2.36-.43.11-.03.22-.06.33-.07.13-.01.23.04.25.18.06.48.13.96.06,1.43-.04.31-.02.61-.03.91-.01.35.12.56.46.69.43.17.87.31,1.31.44.63.19,1.27.25,1.92.06.31-.09.35-.06.48.23.19.4.37.8.56,1.19.14.29.36.43.7.39.66-.08,1.33-.07,2-.2.56-.11,1.13-.15,1.68-.35.23-.08.35,0,.46.22.13.26.24.52.36.78.49,1.03,1.28,1.68,2.43,1.76.71.05,1.42-.01,2.12-.14.34-.06.68-.12,1.02-.13.54-.02,1.06-.12,1.57-.3.94-.33,1.88-.66,2.81-1.01.64-.24,1.27-.4,1.96-.25.31.07.64.09.97.09.52-.01,1.03-.13,1.52-.26,1.08-.28,2.1-.71,3.11-1.18.9-.42,1.79-.88,2.69-1.29.91-.42,1.78-.89,2.65-1.38.94-.52,1.85-1.1,2.77-1.64,1.11-.65,2.18-1.36,3.23-2.09,1.31-.91,2.69-1.68,4.07-2.47.58-.33,1.18-.63,1.78-.93.32-.17.66-.32.97-.51.87-.53,1.8-.94,2.67-1.45.54-.32,1.1-.62,1.66-.92.6-.33,1.2-.66,1.81-.99.49-.27.99-.5,1.46-.8.36-.23.71-.45,1.09-.63.36-.18.71-.36,1.07-.55h0s0,0,.02-.01c.02,0,.04-.02.07-.04.75-.4,1.48-.81,2.22-1.23.12-.07.23-.13.35-.2,1.03-.57,2.31-1.29,3.79-2.13.18-.09.37-.14.57-.16,0-.06.02-.12.02-.18,1.39-.79,2.94-1.67,4.58-2.62.14-.08.29-.16.43-.25.02-.01.05-.03.07-.04.31-.18.62-.36.93-.54,4.52-2.62,9.65-5.67,14.43-8.67.03.05.07.1.12.15,0-.1.02-.18.06-.26.56-.35,1.12-.71,1.67-1.06,0,0,0,0,0,0,.38-.24.76-.49,1.13-.73,5.17-3.33,9.64-6.49,12.02-8.78.98-.63,2.05-1.12,2.92-1.92.04-.04.1-.06.15-.09.47-.29.92-.61,1.32-1.01.07-.07.15-.11.23-.17.32-.24.66-.46.97-.71.49-.4.93-.85,1.45-1.21.42-.3.79-.66,1.22-.95.47-.32.88-.73,1.32-1.11.19-.16.38-.32.56-.49.22-.22.26-.38.07-.61-.18-.22-.12-.4.01-.56.31-.39.62-.78,1.01-1.1.62-.5,1.28-.97,1.96-1.39.34-.21.63-.49.94-.75.1-.09.02-.29-.12-.31-.07,0-.16,0-.22.03-.44.27-.87.55-1.31.82-.15.09-.29.18-.44.26-.28.16-.57.31-.85.48-.11.07-.21.21-.35.13-.17-.09-.1-.26-.07-.41,0-.02,0-.04,0-.06,0-.1-.07-.14-.15-.11-.2.08-.39.16-.58.26-.45.25-.9.52-1.35.77-.2.11-.41.2-.62.29-.03.01-.08,0-.1-.02-.04-.05-.04-.12,0-.15.21-.16.43-.32.65-.47.81-.57,1.69-1.06,2.41-1.76.04-.04.09-.07.14-.1.76-.51,1.52-1.03,2.3-1.51.44-.27.83-.62,1.3-.83.2-.09.34-.25.47-.42.03-.04.04-.11.03-.16-.02-.09-.09-.11-.17-.12-.18-.01-.34.05-.49.15-.32.21-.63.43-.96.64-.18.12-.36.23-.54.33-.12.06-.25.09-.39.04-.02,0-.05-.07-.04-.09.06-.07.12-.15.19-.21.47-.36.95-.72,1.42-1.08.14-.1.27-.21.4-.32.08-.07.05-.19-.04-.24-.12-.07-.24-.12-.38-.07-.22.08-.44.14-.64.25-.74.41-1.55.64-2.31,1-.4.18-.8.35-1.2.54-.31.15-.63.28-.95.41-.07.03-.16.02-.21-.04-.05-.07-.05-.15,0-.22.31-.39.59-.81,1.02-1.08.24-.15.45-.34.61-.63-.17-.02-.3-.03-.43-.06-.09-.02-.13-.17-.06-.24.06-.05.12-.1.18-.14.46-.31.96-.55,1.4-.9.12-.1.25-.16.24-.34,0-.15.08-.26.19-.34.17-.12.35-.23.53-.34.56-.35,1.15-.67,1.72-1.02.47-.29.9-.65,1.4-.9.22-.11.41-.28.61-.43.06-.05.08-.13.04-.21-.04-.07-.12-.09-.2-.07-.05.02-.11.04-.16.06-.5.19-.96.46-1.43.72-.63.35-1.31.61-1.89,1.06-.04.04-.1.06-.15.07-.25.04-.45.2-.67.31-.41.2-.83.4-1.25.59-.09.04-.19.06-.28,0-.03-.02-.06-.08-.05-.09.05-.06.1-.12.16-.16.54-.33,1.08-.66,1.61-1,.3-.19.62-.38.75-.75.03-.08.12-.15.2-.2.32-.21.64-.42.97-.62.4-.25.8-.52,1.21-.76.49-.29.96-.63,1.48-.87.17-.08.33-.2.49-.3.37-.24.72-.51,1.12-.7.57-.28,1.09-.63,1.64-.94.41-.24.81-.52,1.23-.73.42-.2.81-.44,1.21-.66.17-.09.32-.22.49-.29.52-.21.91-.62,1.4-.88.08-.04.14-.13.2-.21.04-.05.06-.1.02-.16-.05-.07-.12-.11-.2-.07-.19.08-.39.15-.58.25-1.06.58-2.11,1.18-3.16,1.76-.37.2-.74.4-1.12.58-.25.12-.5.2-.75-.02-.14-.12-.29-.07-.43,0-.36.18-.72.36-1.07.56-.48.28-.94.59-1.42.86-.99.55-1.99,1.07-2.98,1.61-.27.15-.53.3-.8.46-.32.19-.66.3-1,.43-.03.01-.09,0-.1-.02-.04-.05,0-.11.04-.14.39-.25.78-.48,1.17-.73.74-.47,1.48-.96,2.23-1.42.82-.5,1.65-.97,2.46-1.48.65-.41,1.29-.82,1.91-1.27.85-.6,1.75-1.11,2.65-1.6.44-.24.86-.49,1.29-.74.55-.31,1.06-.68,1.65-.94.3-.13.58-.3.84-.48.19-.13.39-.24.53-.43.05-.07.08-.14,0-.2ZM127.6,15.07s-.02-.02-.03-.02c.01,0,.02.02.03.02ZM127.56,15.04s-.01,0-.02,0c0,0,.01,0,.02,0,0,0,0,0,0,0ZM127.54,15.05s-.01,0-.02.01c.01,0,.03.02.04.03,0,0,0,0,0,0-.01-.01-.03-.02-.04-.03,0,0,.01,0,.02-.01Z"/>
      <g>
        <path class="cls-4" d="M33.14,58.1c2.09,0,3.01.79,3.01,2.46s-.97,2.42-2.99,2.42h-1.93v2.33h-1.04v-7.21h2.95ZM31.23,59v3.16h1.88c1.34,0,1.95-.48,1.95-1.57s-.58-1.59-1.97-1.59h-1.87Z"/>
        <path class="cls-4" d="M46.8,65.31h-1.24l-.76-1.74h-3.65l-.76,1.74h-1.24l3.13-7.21h1.36l3.14,7.21ZM41.44,62.72h3.07l-1.54-3.48-1.53,3.48Z"/>
        <path class="cls-4" d="M52.2,65.31h-1.04v-7.21h1.04v7.21Z"/>
        <path class="cls-4" d="M63.58,65.31h-1.12l-4.27-5.55v5.55h-1.03v-7.21h1.11l4.27,5.55v-5.55h1.03v7.21Z"/>
        <path class="cls-4" d="M73.7,58.99h-2.4v6.31h-1.05v-6.31h-2.4v-.89h5.85v.89Z"/>
        <path class="cls-4" d="M79.09,65.31h-1.04v-7.21h1.04v7.21Z"/>
        <path class="cls-4" d="M90.47,65.31h-1.12l-4.27-5.55v5.55h-1.03v-7.21h1.11l4.27,5.55v-5.55h1.03v7.21Z"/>
        <path class="cls-4" d="M101.69,58.99l-.68.71c-.55-.49-1.25-.75-1.99-.75-1.52,0-2.79,1.16-2.79,2.75s1.19,2.73,2.73,2.73c.79,0,1.5-.26,2.04-.7v-1.47h-1.98v-.76h2.98v2.8c-.8.68-1.87,1.1-3.04,1.1-2.1,0-3.81-1.66-3.81-3.71,0-2.21,1.81-3.72,3.87-3.71.99,0,1.94.36,2.67,1Z"/>
      </g>
      <g>
        <g>
          <polygon class="cls-18" points="78.08 38.79 78.31 39.44 78.75 39.79 78.31 40.14 78.08 40.79 77.84 40.14 77.4 39.79 77.84 39.44 78.08 38.79"/>
          <g>
            <polygon class="cls-5" points="77.02 40.79 77.63 42.08 78.75 42.79 77.63 43.5 77.02 44.79 76.4 43.5 75.28 42.79 76.4 42.08 77.02 40.79"/>
            <path class="cls-10" d="M77.71,42.13l-.08-.05-.61-1.29-.61,1.29-1.12.71.41.26c.12.02.24.03.36.03.71,0,1.32-.38,1.66-.95Z"/>
          </g>
          <g>
            <polygon class="cls-9" points="74.64 38.74 75.12 40.04 75.99 40.74 75.12 41.45 74.64 42.74 74.16 41.45 73.29 40.74 74.16 40.04 74.64 38.74"/>
            <path class="cls-11" d="M75.22,40.12l-.1-.08-.48-1.29-.48,1.29-.79.64c.18.07.38.12.58.12.53,0,.99-.27,1.26-.67Z"/>
          </g>
        </g>
        <g>
          <g>
            <path class="cls-17" d="M83.64,48.92h0c.08.13.06.3-.04.41-.48.49-1.1.93-1.84,1.33-.84.45-1.78.8-2.8,1.05s-2.06.38-3.09.38c-1.61,0-3.08-.27-4.43-.81-1.35-.54-2.52-1.3-3.52-2.29-1-.98-1.76-2.15-2.3-3.5-.54-1.35-.81-2.84-.81-4.46s.29-3.05.85-4.39c.57-1.34,1.36-2.5,2.36-3.49,1.01-.98,2.19-1.75,3.57-2.3,1.37-.55,2.87-.82,4.5-.82,1.02,0,2.01.13,2.99.4.97.26,1.88.66,2.73,1.17.84.52,1.57,1.13,2.18,1.84l-3.17,3.63c-.43-.45-.88-.84-1.36-1.17-.48-.34-1-.59-1.57-.78-.57-.18-1.18-.27-1.83-.27-.81,0-1.58.15-2.3.44-.72.29-1.35.71-1.89,1.25-.54.54-.96,1.19-1.26,1.97-.3.77-.46,1.64-.46,2.59s.15,1.78.46,2.54c.31.76.73,1.42,1.28,1.97.55.55,1.21.97,2,1.25.78.29,1.65.43,2.6.43.65,0,1.27-.09,1.86-.27.42-.13.81-.29,1.19-.49.1-.05.23-.03.3.07h0c.07.1.22.13.32.05l1.25-.89c.1-.07.23-.04.3.06h0c.06.09.03.22-.06.28l-.42.3c-.2.14-.24.41-.1.61h0c.14.2.41.24.61.1l.36-.25c.1-.07.24-.04.3.06h0c.06.1.03.23-.06.29l-2.03,1.32c-.2.13-.26.4-.13.61h0c.13.2.4.26.61.13l1.98-1.28c.12-.08.28-.04.36.08h0c.07.12.04.27-.07.35l-1.3.93c-.1.07-.12.21-.05.31h0c.07.1.21.12.31.05l1.2-.85c.16-.11.37-.07.47.09Z"/>
            <path class="cls-14" d="M83.38,46.43l-.47.33c-.09.07-.23.04-.29-.05h0c-.07-.09-.04-.23.05-.29l.47-.33c.09-.07.23-.04.29.05h0c.07.09.04.23-.05.29Z"/>
            <path class="cls-12" d="M86.06,47.47l-.69.49c-.1.07-.24.05-.32-.05h0c-.07-.1-.05-.24.05-.32l.69-.49c.1-.07.24-.05.32.05h0c.07.1.05.24-.05.32Z"/>
            <path class="cls-15" d="M84.36,44.11l-2.08,1.47c-.09.07-.23.04-.29-.05h0c-.07-.09-.04-.23.05-.29l2.08-1.47c.09-.07.23-.04.29.05h0c.07.09.04.23-.05.29Z"/>
            <path class="cls-6" d="M85.78,46.33l-1.65,1.17c-.09.07-.22.04-.28-.05h0c-.07-.09-.04-.22.05-.28l1.65-1.17c.09-.07.22-.04.28.05h0c.07.09.04.22-.05.28Z"/>
            <path class="cls-16" d="M83.09,48.05s.04.09.04.14c0,.08-.04.16-.11.21l-1.3.93c-.1.07-.12.21-.05.31.03.04.07.07.11.08-1.44.83-3.11,1.31-4.9,1.31-5.4,0-9.78-4.38-9.78-9.78s4.38-9.78,9.78-9.78c2.54,0,4.85.96,6.58,2.55l-2.67,3.06c-.43-.45-.88-.84-1.36-1.17-.48-.34-1-.59-1.57-.78-.57-.18-1.18-.27-1.83-.27-.81,0-1.58.15-2.3.44-.72.29-1.35.71-1.89,1.25-.54.54-.96,1.19-1.26,1.97-.3.77-.46,1.64-.46,2.59s.15,1.78.46,2.54c.31.76.73,1.42,1.28,1.97.55.55,1.21.97,2,1.25.78.29,1.65.43,2.6.43.65,0,1.27-.09,1.86-.27.42-.13.81-.29,1.18-.49.1-.05.23-.03.3.07.05.06.12.1.19.1.05,0,.09-.01.13-.04l1.25-.89c.1-.07.23-.04.3.06.02.03.03.07.03.11,0,.06-.03.13-.09.17l-.42.3c-.2.14-.24.41-.1.61.09.12.22.19.36.19.09,0,.18-.03.25-.08l.36-.25c.1-.07.24-.04.3.06.02.04.03.07.03.11,0,.07-.03.14-.1.18l-2.03,1.32c-.2.13-.26.4-.13.61.08.13.22.2.37.2.08,0,.16-.02.24-.07l1.98-1.28c.12-.08.28-.04.36.08Z"/>
          </g>
          <g>
            <g>
              <path class="cls-7" d="M81.48,37.58l3.08-3.51s0,0,0-.01l-.31-.44s-.01,0-.02,0l-3.25,3.7s0,.01,0,.02l.48.25s0,0,.01,0Z"/>
              <path class="cls-2" d="M85.17,38.27c.35.35.81.57,1.3.63h.09c-.09-.57-.41-1.1-.88-1.45l-1.34-1c-.06-.04-.08-.12-.07-.18l.43-1.95s0,0,0,0l-2.98,3.39s0,0,0,0l1.96-.74c.07-.03.14,0,.19.04l1.3,1.27ZM85.66,38.39c-.1-.08-.11-.23-.02-.33.08-.1.23-.11.33-.02.1.08.11.23.02.33-.08.1-.23.11-.33.02Z"/>
            </g>
            <polygon class="cls-13" points="83.63 34.3 83.96 34.75 81.46 37.58 80.99 37.34 83.63 34.3"/>
            <path class="cls-1" d="M84.04,35.06l.3.89-.07.31s-.03.11.07.18l.45,1.45-.92-.9s-.08-.08-.19-.04c-.11.04-1.96.74-1.96.74l2.31-2.64Z"/>
          </g>
        </g>
      </g>
      <g>
        <path class="cls-8" d="M0,30.95h4.52l9.74,13.84v-13.84h4.17v20.8h-4.3l-9.92-14.41v14.41H0v-20.8Z"/>
        <path class="cls-8" d="M34.2,50.1c-.27.21-.62.43-1.03.66-.41.23-.88.45-1.42.65-.54.2-1.13.36-1.77.49-.64.13-1.31.19-2.01.19-1.22,0-2.33-.21-3.32-.62-.99-.41-1.83-.97-2.53-1.69-.7-.72-1.24-1.55-1.63-2.51-.39-.96-.58-2-.58-3.11s.2-2.13.6-3.1c.4-.97.95-1.81,1.66-2.51.71-.71,1.55-1.26,2.54-1.68.99-.41,2.08-.62,3.26-.62,1.24,0,2.35.21,3.33.62s1.81.97,2.48,1.68c.67.71,1.19,1.54,1.53,2.5.35.96.52,2,.52,3.11,0,.23-.01.47-.03.71-.02.24-.05.48-.09.71l-11.54-.03c.13.51.32.94.58,1.31.26.37.57.68.93.95.36.26.76.46,1.2.6.44.14.91.21,1.39.21.55,0,1.04-.05,1.47-.16.43-.11.8-.23,1.11-.36.31-.14.57-.28.79-.43.22-.15.4-.28.52-.41l2.02,2.84ZM31.45,41.62c-.17-.41-.41-.76-.73-1.04s-.7-.51-1.14-.66c-.44-.16-.94-.24-1.49-.24s-1.01.07-1.45.22c-.44.15-.84.36-1.19.65-.35.28-.64.63-.87,1.04-.23.41-.4.87-.51,1.37h7.65c-.02-.48-.12-.93-.28-1.34Z"/>
        <path class="cls-8" d="M40.74,36.51l2.97,4.61h.06l3-4.61h4.68l-5.25,7.46v.06l5.4,7.71h-4.68l-3.16-4.84h-.06l-3.16,4.84h-4.68l5.44-7.71v-.06l-5.22-7.46h4.65Z"/>
        <path class="cls-8" d="M53.98,36.51l.88-4.11h3.19v4.11h4.33v3.29h-4.33v6.2c0,.67.08,1.2.24,1.58.16.38.42.64.77.79.36.15.81.2,1.36.14.55-.05,1.2-.17,1.96-.36v3.35c-1.29.36-2.44.54-3.48.55-1.03.01-1.91-.14-2.64-.46-.73-.32-1.29-.81-1.69-1.49-.4-.67-.6-1.51-.6-2.5v-7.81h-2.53v-3.29h2.53Z"/>
        <path class="cls-8" d="M87.87,41.1c.42-.97,1-1.81,1.74-2.53.74-.72,1.62-1.28,2.64-1.69,1.02-.41,2.13-.62,3.33-.62s2.31.21,3.33.62c1.02.41,1.91.97,2.65,1.69.75.72,1.33,1.56,1.75,2.53.42.97.63,1.99.63,3.07s-.21,2.1-.63,3.07c-.42.97-1.01,1.81-1.75,2.53-.75.72-1.63,1.29-2.65,1.71-1.02.42-2.13.63-3.33.63s-2.31-.21-3.33-.63c-1.02-.42-1.9-.99-2.64-1.71-.74-.72-1.32-1.56-1.74-2.53-.42-.97-.63-1.99-.63-3.07s.21-2.1.63-3.07ZM91.56,45.82c.22.54.52,1.01.9,1.41.38.4.84.72,1.37.95.54.23,1.11.35,1.72.35s1.21-.12,1.74-.35c.53-.23.98-.55,1.36-.95.38-.4.68-.86.9-1.39.22-.53.33-1.1.33-1.71s-.11-1.15-.33-1.69c-.22-.54-.52-1.01-.9-1.41-.38-.4-.83-.72-1.36-.95-.53-.23-1.11-.35-1.74-.35s-1.19.12-1.72.35c-.54.23-1,.55-1.37.95-.38.4-.68.86-.9,1.39-.22.53-.33,1.1-.33,1.71s.11,1.15.33,1.69Z"/>
        <path class="cls-8" d="M106.96,41.48l-2.24-2.66c.21-.21.52-.47.93-.77.41-.31.9-.6,1.47-.87.57-.27,1.22-.51,1.94-.7.73-.19,1.52-.28,2.39-.28.93,0,1.81.12,2.64.36.83.24,1.56.62,2.18,1.12.62.51,1.11,1.14,1.47,1.91.36.77.54,1.69.54,2.77v9.39h-3.48l-.28-2.02c-.27.36-.57.69-.9.98-.33.3-.7.54-1.11.74-.41.2-.85.35-1.33.46-.47.11-.99.16-1.53.16-.8,0-1.52-.12-2.15-.36-.63-.24-1.17-.57-1.61-1-.44-.42-.78-.91-1.01-1.47-.23-.56-.35-1.16-.35-1.82s.14-1.3.41-1.88c.27-.58.7-1.08,1.28-1.5.58-.42,1.31-.76,2.2-1.01.88-.25,1.94-.38,3.16-.38h2.84v-.22c0-.89-.26-1.57-.79-2.05-.53-.48-1.32-.73-2.37-.73-.49,0-.95.06-1.41.19-.45.13-.86.28-1.23.47-.37.19-.7.39-1,.6-.3.21-.52.4-.66.57ZM114.42,45.14l-2.59-.03c-1.14,0-1.95.21-2.43.62-.48.41-.73.89-.73,1.44,0,.23.05.46.14.68.09.22.23.42.41.58.18.17.41.31.7.43.28.12.62.17,1,.17.4,0,.81-.08,1.23-.25.42-.17.8-.41,1.12-.71.33-.31.6-.68.82-1.12.22-.44.33-.95.33-1.52v-.28Z"/>
        <path class="cls-8" d="M121.66,36.51l.88-4.11h3.19v4.11h4.33v3.29h-4.33v6.2c0,.67.08,1.2.24,1.58.16.38.42.64.77.79.36.15.81.2,1.36.14.55-.05,1.2-.17,1.96-.36v3.35c-1.29.36-2.44.54-3.48.55-1.03.01-1.91-.14-2.64-.46-.73-.32-1.29-.81-1.69-1.49-.4-.67-.6-1.51-.6-2.5v-7.81h-2.53v-3.29h2.53Z"/>
      </g>
    </g>
  </g>
</svg>